<svg width="220" height="604" viewBox="0 0 220 604" fill="none" xmlns="http://www.w3.org/2000/svg">
<path opacity="0.5" d="M219 110C219 170.199 170.199 219 110 219C49.8009 219 0.99997 170.199 0.999981 110C0.999991 49.801 49.801 1.00001 110 1.00002C170.199 1.00003 219 49.801 219 110Z" stroke="url(#paint0_linear_3152_2062)" stroke-width="2"/>
<path opacity="0.5" d="M219 302C219 362.199 170.199 411 110 411C49.8009 411 0.99997 362.199 0.999981 302C0.999991 241.801 49.801 193 110 193C170.199 193 219 241.801 219 302Z" stroke="url(#paint1_linear_3152_2062)" stroke-width="2"/>
<path opacity="0.5" d="M219 494C219 554.199 170.199 603 110 603C49.8009 603 0.99997 554.199 0.999981 494C0.999991 433.801 49.801 385 110 385C170.199 385 219 433.801 219 494Z" stroke="url(#paint2_linear_3152_2062)" stroke-width="2"/>
<path d="M74.0549 253.7H75.0999V267H74.0549V253.7ZM85.2791 261.376C85.2791 260.629 85.1145 260.046 84.7851 259.628C84.4558 259.21 83.9365 259.001 83.2271 259.001C82.7331 259.001 82.2898 259.121 81.8971 259.362C81.5171 259.59 81.2131 259.907 80.9851 260.312C80.7698 260.717 80.6621 261.173 80.6621 261.68V267H79.6741V258.26H80.6621V260.084C80.9028 259.451 81.2638 258.957 81.7451 258.602C82.2391 258.247 82.8091 258.07 83.4551 258.07C84.3671 258.07 85.0638 258.361 85.5451 258.944C86.0265 259.514 86.2671 260.287 86.2671 261.262V267H85.2791V261.376ZM96.3919 261.376C96.3919 260.629 96.2273 260.046 95.8979 259.628C95.5686 259.21 95.0493 259.001 94.3399 259.001C93.8459 259.001 93.4026 259.121 93.0099 259.362C92.6299 259.59 92.3259 259.907 92.0979 260.312C91.8826 260.717 91.7749 261.173 91.7749 261.68V267H90.7869V258.26H91.7749V260.084C92.0156 259.451 92.3766 258.957 92.8579 258.602C93.3519 258.247 93.9219 258.07 94.5679 258.07C95.4799 258.07 96.1766 258.361 96.6579 258.944C97.1393 259.514 97.3799 260.287 97.3799 261.262V267H96.3919V261.376ZM101.14 262.63C101.14 261.743 101.336 260.958 101.729 260.274C102.121 259.59 102.653 259.052 103.325 258.659C104.009 258.266 104.775 258.07 105.624 258.07C106.472 258.07 107.232 258.266 107.904 258.659C108.588 259.052 109.126 259.59 109.519 260.274C109.911 260.958 110.108 261.743 110.108 262.63C110.108 263.504 109.911 264.289 109.519 264.986C109.126 265.67 108.588 266.208 107.904 266.601C107.232 266.994 106.472 267.19 105.624 267.19C104.775 267.19 104.009 266.994 103.325 266.601C102.653 266.208 102.121 265.67 101.729 264.986C101.336 264.289 101.14 263.504 101.14 262.63ZM102.147 262.63C102.147 263.339 102.299 263.966 102.603 264.511C102.907 265.056 103.318 265.486 103.838 265.803C104.37 266.107 104.965 266.259 105.624 266.259C106.282 266.259 106.871 266.107 107.391 265.803C107.923 265.486 108.341 265.056 108.645 264.511C108.949 263.966 109.101 263.339 109.101 262.63C109.101 261.933 108.949 261.313 108.645 260.768C108.341 260.211 107.923 259.78 107.391 259.476C106.871 259.159 106.282 259.001 105.624 259.001C104.965 259.001 104.37 259.159 103.838 259.476C103.318 259.78 102.907 260.204 102.603 260.749C102.299 261.294 102.147 261.921 102.147 262.63ZM112.163 258.26H113.284L116.191 265.385L119.098 258.26H120.219L116.191 267.513L112.163 258.26ZM123.461 264.378C123.461 264.809 123.556 265.17 123.746 265.461C123.948 265.752 124.214 265.974 124.544 266.126C124.886 266.265 125.259 266.335 125.665 266.335C126.159 266.335 126.608 266.221 127.014 265.993C127.432 265.765 127.767 265.429 128.021 264.986C128.274 264.543 128.401 263.998 128.401 263.352L128.629 264.188C128.629 264.872 128.464 265.436 128.135 265.879C127.805 266.322 127.394 266.652 126.9 266.867C126.406 267.082 125.905 267.19 125.399 267.19C124.905 267.19 124.43 267.089 123.974 266.886C123.518 266.671 123.15 266.36 122.872 265.955C122.593 265.55 122.454 265.037 122.454 264.416C122.454 263.567 122.745 262.896 123.328 262.402C123.923 261.908 124.727 261.661 125.741 261.661C126.311 261.661 126.798 261.731 127.204 261.87C127.622 261.997 127.964 262.142 128.23 262.307C128.496 262.472 128.686 262.611 128.8 262.725V263.352C128.369 263.048 127.907 262.826 127.413 262.687C126.931 262.535 126.425 262.459 125.893 262.459C125.399 262.459 124.968 262.529 124.601 262.668C124.246 262.807 123.967 263.016 123.765 263.295C123.562 263.574 123.461 263.935 123.461 264.378ZM123.499 259.856L123.005 259.115C123.334 258.887 123.758 258.659 124.278 258.431C124.81 258.19 125.462 258.07 126.235 258.07C126.893 258.07 127.457 258.178 127.926 258.393C128.394 258.608 128.755 258.919 129.009 259.324C129.262 259.729 129.389 260.223 129.389 260.806V267H128.401V260.939C128.401 260.686 128.363 260.445 128.287 260.217C128.211 259.976 128.084 259.761 127.907 259.571C127.742 259.381 127.514 259.229 127.223 259.115C126.931 259.001 126.577 258.944 126.159 258.944C125.728 258.944 125.342 258.995 125 259.096C124.658 259.197 124.36 259.318 124.107 259.457C123.866 259.596 123.663 259.729 123.499 259.856ZM132.294 258.26H136.132V259.191H132.294V258.26ZM133.719 255.22H134.707V267H133.719V255.22ZM142.606 267.19C141.82 267.19 141.124 266.994 140.516 266.601C139.908 266.208 139.426 265.67 139.072 264.986C138.73 264.289 138.559 263.498 138.559 262.611C138.559 261.724 138.736 260.939 139.091 260.255C139.445 259.571 139.939 259.039 140.573 258.659C141.206 258.266 141.934 258.07 142.758 258.07C143.556 258.07 144.252 258.254 144.848 258.621C145.456 258.988 145.924 259.501 146.254 260.16C146.596 260.806 146.767 261.553 146.767 262.402C146.767 262.478 146.76 262.56 146.748 262.649C146.748 262.738 146.741 262.814 146.729 262.877H139.186V262.022H145.988L145.57 262.611C145.595 262.548 145.62 262.465 145.646 262.364C145.684 262.25 145.703 262.142 145.703 262.041C145.703 261.446 145.57 260.914 145.304 260.445C145.05 259.976 144.702 259.609 144.259 259.343C143.815 259.077 143.315 258.944 142.758 258.944C142.112 258.944 141.548 259.096 141.067 259.4C140.598 259.691 140.231 260.109 139.965 260.654C139.699 261.186 139.566 261.819 139.566 262.554C139.566 263.301 139.692 263.954 139.946 264.511C140.212 265.068 140.579 265.499 141.048 265.803C141.529 266.107 142.086 266.259 142.72 266.259C143.391 266.259 143.974 266.113 144.468 265.822C144.974 265.531 145.424 265.075 145.817 264.454L146.615 264.967C146.121 265.727 145.544 266.291 144.886 266.658C144.24 267.013 143.48 267.19 142.606 267.19Z" fill="#141414"/>
<path d="M98.624 288.592H94.624V289.44H98.624V288.592ZM94.56 291.264H98.624V290.368H94.608C94.592 290.656 94.576 290.96 94.56 291.264ZM99.04 294.016H95.6V295.456H99.04V294.016ZM99.968 292.336H94.464C94.432 292.544 94.4 292.752 94.368 292.96H100.352V297.136H99.04V296.592H95.6V297.168H94.336V293.152C94.112 294.384 93.744 295.632 93.12 296.656C92.848 296.448 92.208 296.16 91.84 296.032C93.088 294.064 93.232 291.344 93.232 289.536V287.52H99.968V292.336ZM96.448 282.64L97.808 283.152C97.728 283.296 97.632 283.424 97.536 283.568C98.752 284.288 100.16 285.152 100.912 285.728L100.144 286.976C99.376 286.352 97.936 285.408 96.704 284.624C96.288 285.072 95.84 285.504 95.36 285.904H98.416V286.832H95.104V286.128C94.336 286.752 93.488 287.296 92.656 287.744C92.512 287.408 92.112 286.672 91.856 286.352C93.664 285.52 95.456 284.192 96.448 282.64ZM102.944 284.288V293.088H101.552V284.288H102.944ZM104.48 282.64H105.92V295.392C105.92 296.256 105.728 296.688 105.216 296.912C104.72 297.168 103.888 297.216 102.592 297.216C102.528 296.816 102.32 296.144 102.112 295.728C103.024 295.76 103.856 295.76 104.112 295.744C104.384 295.744 104.48 295.664 104.48 295.376V282.64ZM120.768 284.208V285.44H113.728V284.208H116.656C116.48 283.76 116.272 283.248 116.08 282.848L117.552 282.464C117.824 283.008 118.144 283.68 118.352 284.208H120.768ZM114.848 292.432L116.016 292.784C115.616 293.904 114.976 295.184 114.4 296C114.16 295.808 113.68 295.456 113.376 295.296C113.968 294.544 114.512 293.456 114.848 292.432ZM120.8 291.744H118.08V297.168H116.64V291.744H113.568V290.48H116.64V289.024H113.472V287.776H115.216C115.152 287.232 114.928 286.4 114.656 285.776L115.872 285.472C116.128 286.096 116.384 286.912 116.464 287.44L115.28 287.776H117.808C118.096 287.104 118.432 286.128 118.592 285.456L119.968 285.744C119.696 286.448 119.424 287.184 119.152 287.776H121.024V289.024H118.08V290.48H120.8V291.744ZM118.64 292.848L119.632 292.304C120.16 293.056 120.704 294.064 120.96 294.704L119.92 295.328C119.664 294.656 119.12 293.616 118.64 292.848ZM128.048 287.888V289.264H126.416V297.184H124.96V289.264H123.088V289.648C123.088 291.952 122.88 295.152 121.456 297.184C121.232 296.912 120.624 296.464 120.32 296.304C121.584 294.448 121.696 291.744 121.696 289.648V284.112C123.472 283.808 125.44 283.312 126.592 282.816L127.76 283.904C126.448 284.416 124.72 284.8 123.088 285.088V287.888H128.048Z" fill="#141414"/>
<path d="M66.9252 71.162C67.1406 71.7193 67.4002 72.226 67.7042 72.682C68.0209 73.138 68.4072 73.5053 68.8632 73.784C69.3192 74.05 69.8639 74.183 70.4972 74.183C71.3586 74.183 72.0299 73.9487 72.5112 73.48C73.0052 72.9987 73.2522 72.3907 73.2522 71.656C73.2522 71.01 73.1066 70.4907 72.8152 70.098C72.5239 69.7053 72.1439 69.3887 71.6752 69.148C71.2192 68.8947 70.7379 68.673 70.2312 68.483C69.8512 68.3437 69.4522 68.179 69.0342 67.989C68.6289 67.7863 68.2489 67.5457 67.8942 67.267C67.5396 66.9757 67.2482 66.6273 67.0202 66.222C66.8049 65.8167 66.6972 65.329 66.6972 64.759C66.6972 64.1257 66.8492 63.5683 67.1532 63.087C67.4572 62.593 67.8816 62.213 68.4262 61.947C68.9709 61.6683 69.5852 61.529 70.2692 61.529C70.9786 61.529 71.5866 61.662 72.0932 61.928C72.6126 62.194 73.0432 62.5297 73.3852 62.935C73.7272 63.3403 73.9869 63.7583 74.1642 64.189L73.2522 64.702C73.1129 64.36 72.9102 64.0243 72.6442 63.695C72.3909 63.3657 72.0679 63.0933 71.6752 62.878C71.2826 62.65 70.7949 62.536 70.2122 62.536C69.4396 62.536 68.8442 62.7387 68.4262 63.144C68.0082 63.5367 67.7992 64.0307 67.7992 64.626C67.7992 65.12 67.9196 65.5443 68.1602 65.899C68.4009 66.2537 68.7619 66.5767 69.2432 66.868C69.7246 67.1467 70.3199 67.4127 71.0292 67.666C71.3966 67.8053 71.7766 67.9763 72.1692 68.179C72.5619 68.3817 72.9166 68.635 73.2332 68.939C73.5626 69.243 73.8286 69.6103 74.0312 70.041C74.2339 70.459 74.3352 70.9593 74.3352 71.542C74.3352 72.0867 74.2339 72.5807 74.0312 73.024C73.8412 73.4673 73.5689 73.8537 73.2142 74.183C72.8722 74.4997 72.4669 74.7467 71.9982 74.924C71.5296 75.0887 71.0229 75.171 70.4782 75.171C69.7056 75.171 69.0279 75.0127 68.4452 74.696C67.8626 74.3793 67.3749 73.955 66.9822 73.423C66.5896 72.891 66.2856 72.3147 66.0702 71.694L66.9252 71.162ZM76.8891 66.26H80.7271V67.191H76.8891V66.26ZM78.3141 63.22H79.3021V75H78.3141V63.22ZM84.9019 66.26V75H83.9139V66.26H84.9019ZM87.8089 67.419C87.6189 67.2797 87.4352 67.1783 87.2579 67.115C87.0932 67.039 86.8969 67.001 86.6689 67.001C86.2382 67.001 85.8899 67.1213 85.6239 67.362C85.3706 67.6027 85.1869 67.9257 85.0729 68.331C84.9589 68.7363 84.9019 69.186 84.9019 69.68H84.4459C84.4459 68.9833 84.5536 68.369 84.7689 67.837C84.9842 67.2923 85.2756 66.8617 85.6429 66.545C86.0229 66.2283 86.4409 66.07 86.8969 66.07C87.1756 66.07 87.4352 66.1143 87.6759 66.203C87.9292 66.279 88.1572 66.412 88.3599 66.602L87.8089 67.419ZM91.7089 72.378C91.7089 72.8087 91.8039 73.1697 91.9939 73.461C92.1966 73.7523 92.4626 73.974 92.7919 74.126C93.1339 74.2653 93.5076 74.335 93.9129 74.335C94.4069 74.335 94.8566 74.221 95.2619 73.993C95.6799 73.765 96.0156 73.4293 96.2689 72.986C96.5223 72.5427 96.6489 71.998 96.6489 71.352L96.8769 72.188C96.8769 72.872 96.7123 73.4357 96.3829 73.879C96.0536 74.3223 95.6419 74.6517 95.1479 74.867C94.6539 75.0823 94.1536 75.19 93.6469 75.19C93.1529 75.19 92.6779 75.0887 92.2219 74.886C91.7659 74.6707 91.3986 74.3603 91.1199 73.955C90.8413 73.5497 90.7019 73.0367 90.7019 72.416C90.7019 71.5673 90.9933 70.896 91.5759 70.402C92.1713 69.908 92.9756 69.661 93.9889 69.661C94.5589 69.661 95.0466 69.7307 95.4519 69.87C95.8699 69.9967 96.2119 70.1423 96.4779 70.307C96.7439 70.4717 96.9339 70.611 97.0479 70.725V71.352C96.6173 71.048 96.1549 70.8263 95.6609 70.687C95.1796 70.535 94.6729 70.459 94.1409 70.459C93.6469 70.459 93.2163 70.5287 92.8489 70.668C92.4943 70.8073 92.2156 71.0163 92.0129 71.295C91.8103 71.5737 91.7089 71.9347 91.7089 72.378ZM91.7469 67.856L91.2529 67.115C91.5823 66.887 92.0066 66.659 92.5259 66.431C93.0579 66.1903 93.7103 66.07 94.4829 66.07C95.1416 66.07 95.7053 66.1777 96.1739 66.393C96.6426 66.6083 97.0036 66.9187 97.2569 67.324C97.5103 67.7293 97.6369 68.2233 97.6369 68.806V75H96.6489V68.939C96.6489 68.6857 96.6109 68.445 96.5349 68.217C96.4589 67.9763 96.3323 67.761 96.1549 67.571C95.9903 67.381 95.7623 67.229 95.4709 67.115C95.1796 67.001 94.8249 66.944 94.4069 66.944C93.9763 66.944 93.5899 66.9947 93.2479 67.096C92.9059 67.1973 92.6083 67.3177 92.3549 67.457C92.1143 67.5963 91.9116 67.7293 91.7469 67.856ZM100.542 66.26H104.38V67.191H100.542V66.26ZM101.967 63.22H102.955V75H101.967V63.22ZM110.854 75.19C110.068 75.19 109.372 74.9937 108.764 74.601C108.156 74.2083 107.674 73.67 107.32 72.986C106.978 72.2893 106.807 71.4977 106.807 70.611C106.807 69.7243 106.984 68.939 107.339 68.255C107.693 67.571 108.187 67.039 108.821 66.659C109.454 66.2663 110.182 66.07 111.006 66.07C111.804 66.07 112.5 66.2537 113.096 66.621C113.704 66.9883 114.172 67.5013 114.502 68.16C114.844 68.806 115.015 69.5533 115.015 70.402C115.015 70.478 115.008 70.5603 114.996 70.649C114.996 70.7377 114.989 70.8137 114.977 70.877H107.434V70.022H114.236L113.818 70.611C113.843 70.5477 113.868 70.4653 113.894 70.364C113.932 70.25 113.951 70.1423 113.951 70.041C113.951 69.4457 113.818 68.9137 113.552 68.445C113.298 67.9763 112.95 67.609 112.507 67.343C112.063 67.077 111.563 66.944 111.006 66.944C110.36 66.944 109.796 67.096 109.315 67.4C108.846 67.6913 108.479 68.1093 108.213 68.654C107.947 69.186 107.814 69.8193 107.814 70.554C107.814 71.3013 107.94 71.9537 108.194 72.511C108.46 73.0683 108.827 73.499 109.296 73.803C109.777 74.107 110.334 74.259 110.968 74.259C111.639 74.259 112.222 74.1133 112.716 73.822C113.222 73.5307 113.672 73.0747 114.065 72.454L114.863 72.967C114.369 73.727 113.792 74.2907 113.134 74.658C112.488 75.0127 111.728 75.19 110.854 75.19ZM118.221 75.57H119.228C119.228 76.1147 119.355 76.6023 119.608 77.033C119.862 77.4637 120.216 77.8057 120.672 78.059C121.141 78.3123 121.679 78.439 122.287 78.439C122.832 78.439 123.345 78.3123 123.826 78.059C124.308 77.8057 124.7 77.4067 125.004 76.862C125.321 76.33 125.479 75.646 125.479 74.81V66.26H126.467V74.81C126.467 75.8107 126.271 76.6467 125.878 77.318C125.486 78.002 124.973 78.515 124.339 78.857C123.706 79.199 123.022 79.37 122.287 79.37C121.489 79.37 120.78 79.2117 120.159 78.895C119.551 78.5783 119.076 78.1287 118.734 77.546C118.392 76.976 118.221 76.3173 118.221 75.57ZM118.012 70.63C118.012 69.68 118.202 68.8693 118.582 68.198C118.962 67.514 119.469 66.9883 120.102 66.621C120.748 66.2537 121.458 66.07 122.23 66.07C122.99 66.07 123.643 66.2727 124.187 66.678C124.732 67.0707 125.156 67.609 125.46 68.293C125.777 68.977 125.935 69.756 125.935 70.63C125.935 71.4913 125.777 72.2703 125.46 72.967C125.156 73.651 124.732 74.1957 124.187 74.601C123.643 74.9937 122.99 75.19 122.23 75.19C121.458 75.19 120.748 75.0063 120.102 74.639C119.469 74.2717 118.962 73.746 118.582 73.062C118.202 72.378 118.012 71.5673 118.012 70.63ZM119.019 70.63C119.019 71.39 119.165 72.0423 119.456 72.587C119.76 73.1317 120.166 73.5497 120.672 73.841C121.192 74.1197 121.755 74.259 122.363 74.259C122.908 74.259 123.415 74.1007 123.883 73.784C124.365 73.4673 124.751 73.0367 125.042 72.492C125.334 71.9347 125.479 71.3013 125.479 70.592C125.479 70.0853 125.397 69.6167 125.232 69.186C125.068 68.7553 124.833 68.3753 124.529 68.046C124.238 67.7167 123.902 67.4633 123.522 67.286C123.155 67.096 122.769 67.001 122.363 67.001C121.755 67.001 121.192 67.1467 120.672 67.438C120.166 67.7167 119.76 68.1283 119.456 68.673C119.165 69.2177 119.019 69.87 119.019 70.63ZM130.887 62.308C130.887 62.1053 130.957 61.9407 131.096 61.814C131.235 61.6747 131.4 61.605 131.59 61.605C131.793 61.605 131.957 61.6747 132.084 61.814C132.223 61.9407 132.293 62.1053 132.293 62.308C132.293 62.498 132.223 62.6627 132.084 62.802C131.957 62.9413 131.793 63.011 131.59 63.011C131.4 63.011 131.235 62.9413 131.096 62.802C130.957 62.6627 130.887 62.498 130.887 62.308ZM131.096 66.26H132.084V75H131.096V66.26ZM141.63 67.191H136.139V66.26H143.435L137.45 74.069H143.283V75H135.645L141.63 67.191ZM149.868 75.19C149.083 75.19 148.386 74.9937 147.778 74.601C147.17 74.2083 146.689 73.67 146.334 72.986C145.992 72.2893 145.821 71.4977 145.821 70.611C145.821 69.7243 145.999 68.939 146.353 68.255C146.708 67.571 147.202 67.039 147.835 66.659C148.469 66.2663 149.197 66.07 150.02 66.07C150.818 66.07 151.515 66.2537 152.11 66.621C152.718 66.9883 153.187 67.5013 153.516 68.16C153.858 68.806 154.029 69.5533 154.029 70.402C154.029 70.478 154.023 70.5603 154.01 70.649C154.01 70.7377 154.004 70.8137 153.991 70.877H146.448V70.022H153.25L152.832 70.611C152.858 70.5477 152.883 70.4653 152.908 70.364C152.946 70.25 152.965 70.1423 152.965 70.041C152.965 69.4457 152.832 68.9137 152.566 68.445C152.313 67.9763 151.965 67.609 151.521 67.343C151.078 67.077 150.578 66.944 150.02 66.944C149.374 66.944 148.811 67.096 148.329 67.4C147.861 67.6913 147.493 68.1093 147.227 68.654C146.961 69.186 146.828 69.8193 146.828 70.554C146.828 71.3013 146.955 71.9537 147.208 72.511C147.474 73.0683 147.842 73.499 148.31 73.803C148.792 74.107 149.349 74.259 149.982 74.259C150.654 74.259 151.236 74.1133 151.73 73.822C152.237 73.5307 152.687 73.0747 153.079 72.454L153.877 72.967C153.383 73.727 152.807 74.2907 152.148 74.658C151.502 75.0127 150.742 75.19 149.868 75.19Z" fill="#141414"/>
<path d="M95.824 92.8H94.656C94.144 93.6 93.584 94.32 93.024 94.864C92.816 94.624 92.304 94.112 92.016 93.888C92.96 93.04 93.856 91.744 94.352 90.448L95.68 90.832C95.568 91.104 95.456 91.36 95.312 91.632H99.136V92.8H96.448C96.928 93.216 97.44 93.728 97.728 94.064L96.768 94.912C96.448 94.48 95.76 93.792 95.232 93.296L95.824 92.8ZM100.192 98.736V100.192C101.488 101.504 103.936 102.848 106.736 103.392C106.432 103.712 106 104.32 105.792 104.704C103.52 104.128 101.536 102.944 100.192 101.76V105.248H98.608V101.712C97.088 103.12 95.04 104.208 92.944 104.784C92.752 104.416 92.32 103.84 92.016 103.536C94.64 102.96 97.216 101.648 98.608 100V98.736H95.056V101.68H93.488V97.472H98.608V96.432H92.416V95.136H98.608V94.192H99.904C99.632 93.952 99.184 93.6 98.912 93.424C99.776 92.704 100.512 91.6 100.896 90.448L102.256 90.784C102.16 91.072 102.032 91.344 101.92 91.632H106.512V92.8H103.376C103.888 93.184 104.448 93.68 104.768 94.032L103.76 94.912C103.408 94.48 102.704 93.824 102.128 93.36L102.816 92.8H101.264C100.912 93.328 100.528 93.808 100.128 94.192H100.192V95.136H106.128V96.432H100.192V97.472H105.264V100.288C105.264 100.96 105.12 101.264 104.656 101.456C104.16 101.648 103.488 101.664 102.608 101.664C102.512 101.28 102.272 100.816 102.096 100.48C102.688 100.512 103.328 100.512 103.488 100.496C103.68 100.496 103.744 100.448 103.744 100.288V98.736H100.192ZM121.312 99.424H126.272C125.376 98.928 124.544 98.32 123.824 97.664C123.04 98.336 122.192 98.928 121.312 99.424ZM121.792 103.376H125.712V100.736H121.792V103.376ZM119.328 95.456V98.848C120.56 98.336 121.776 97.6 122.848 96.688C122.272 96.048 121.776 95.376 121.376 94.736C120.944 95.264 120.464 95.728 120 96.128C119.856 95.952 119.584 95.696 119.328 95.456ZM117.088 100.752H118.16V97.216H117.088V100.752ZM115.088 97.216V100.752H116.128V97.216H115.088ZM116.128 92.8H115.088V95.968H116.128V92.8ZM118.16 95.968V92.8H117.088V95.968H118.16ZM125.488 93.456H122.352L122.208 93.664C122.608 94.352 123.152 95.088 123.808 95.76C124.48 95.056 125.056 94.288 125.488 93.456ZM126.464 92.144L127.424 92.624C126.832 94.192 125.92 95.552 124.816 96.704C125.84 97.552 127.072 98.288 128.448 98.752C128.144 99.024 127.696 99.616 127.488 100C127.376 99.952 127.264 99.904 127.152 99.856V105.184H125.712V104.688H121.792V105.2H120.384V99.904C120.192 100 119.984 100.096 119.792 100.176C119.68 99.968 119.504 99.712 119.328 99.488V102.032H115.088V103.408H113.968V91.504H119.328V94.736C120.576 93.68 121.68 92.144 122.32 90.528L123.712 90.928C123.536 91.36 123.328 91.792 123.104 92.208H126.208L126.464 92.144Z" fill="#141414"/>
<path d="M50.7803 452.35C50.7803 453.477 51.021 454.472 51.5023 455.333C51.9837 456.194 52.6297 456.872 53.4403 457.366C54.251 457.86 55.1567 458.107 56.1573 458.107C56.7907 458.107 57.367 458.037 57.8863 457.898C58.4057 457.759 58.8743 457.55 59.2923 457.271C59.723 456.992 60.103 456.663 60.4323 456.283V457.689C59.875 458.183 59.267 458.557 58.6083 458.81C57.9497 459.051 57.1327 459.171 56.1573 459.171C55.2327 459.171 54.3713 459.006 53.5733 458.677C52.788 458.335 52.104 457.86 51.5213 457.252C50.9387 456.644 50.4827 455.922 50.1533 455.086C49.824 454.25 49.6593 453.338 49.6593 452.35C49.6593 451.362 49.824 450.45 50.1533 449.614C50.4827 448.778 50.9387 448.056 51.5213 447.448C52.104 446.84 52.788 446.371 53.5733 446.042C54.3713 445.7 55.2327 445.529 56.1573 445.529C57.1327 445.529 57.9497 445.656 58.6083 445.909C59.267 446.15 59.875 446.517 60.4323 447.011V448.398C60.103 448.018 59.723 447.695 59.2923 447.429C58.8617 447.15 58.3867 446.941 57.8673 446.802C57.348 446.663 56.778 446.593 56.1573 446.593C55.1567 446.593 54.251 446.84 53.4403 447.334C52.6297 447.815 51.9837 448.487 51.5023 449.348C51.021 450.209 50.7803 451.21 50.7803 452.35ZM64.0912 454.63C64.0912 453.743 64.2875 452.958 64.6802 452.274C65.0728 451.59 65.6048 451.052 66.2762 450.659C66.9602 450.266 67.7265 450.07 68.5752 450.07C69.4238 450.07 70.1838 450.266 70.8552 450.659C71.5392 451.052 72.0775 451.59 72.4702 452.274C72.8628 452.958 73.0592 453.743 73.0592 454.63C73.0592 455.504 72.8628 456.289 72.4702 456.986C72.0775 457.67 71.5392 458.208 70.8552 458.601C70.1838 458.994 69.4238 459.19 68.5752 459.19C67.7265 459.19 66.9602 458.994 66.2762 458.601C65.6048 458.208 65.0728 457.67 64.6802 456.986C64.2875 456.289 64.0912 455.504 64.0912 454.63ZM65.0982 454.63C65.0982 455.339 65.2502 455.966 65.5542 456.511C65.8582 457.056 66.2698 457.486 66.7892 457.803C67.3212 458.107 67.9165 458.259 68.5752 458.259C69.2338 458.259 69.8228 458.107 70.3422 457.803C70.8742 457.486 71.2922 457.056 71.5962 456.511C71.9002 455.966 72.0522 455.339 72.0522 454.63C72.0522 453.933 71.9002 453.313 71.5962 452.768C71.2922 452.211 70.8742 451.78 70.3422 451.476C69.8228 451.159 69.2338 451.001 68.5752 451.001C67.9165 451.001 67.3212 451.159 66.7892 451.476C66.2698 451.78 65.8582 452.204 65.5542 452.749C65.2502 453.294 65.0982 453.921 65.0982 454.63ZM87.9515 453.262V459H86.9635V453.376C86.9635 452.616 86.8178 452.033 86.5265 451.628C86.2351 451.21 85.7855 451.001 85.1775 451.001C84.7468 451.001 84.3541 451.115 83.9995 451.343C83.6575 451.571 83.3851 451.888 83.1825 452.293C82.9798 452.698 82.8785 453.161 82.8785 453.68V459H81.8905V453.376C81.8905 452.616 81.7448 452.033 81.4535 451.628C81.1621 451.21 80.7125 451.001 80.1045 451.001C79.6738 451.001 79.2811 451.115 78.9265 451.343C78.5845 451.571 78.3121 451.888 78.1095 452.293C77.9068 452.698 77.8055 453.161 77.8055 453.68V459H76.8175V450.26H77.8055V452.027C78.0335 451.406 78.3691 450.925 78.8125 450.583C79.2558 450.241 79.7625 450.07 80.3325 450.07C80.9658 450.07 81.4851 450.254 81.8905 450.621C82.2958 450.976 82.5681 451.463 82.7075 452.084C82.9608 451.451 83.3281 450.957 83.8095 450.602C84.2908 450.247 84.8228 450.07 85.4055 450.07C85.9501 450.07 86.4125 450.197 86.7925 450.45C87.1725 450.703 87.4575 451.071 87.6475 451.552C87.8501 452.033 87.9515 452.603 87.9515 453.262ZM103.61 453.262V459H102.622V453.376C102.622 452.616 102.476 452.033 102.185 451.628C101.894 451.21 101.444 451.001 100.836 451.001C100.405 451.001 100.013 451.115 99.6581 451.343C99.3161 451.571 99.0438 451.888 98.8411 452.293C98.6385 452.698 98.5371 453.161 98.5371 453.68V459H97.5491V453.376C97.5491 452.616 97.4035 452.033 97.1121 451.628C96.8208 451.21 96.3711 451.001 95.7631 451.001C95.3325 451.001 94.9398 451.115 94.5851 451.343C94.2431 451.571 93.9708 451.888 93.7681 452.293C93.5655 452.698 93.4641 453.161 93.4641 453.68V459H92.4761V450.26H93.4641V452.027C93.6921 451.406 94.0278 450.925 94.4711 450.583C94.9145 450.241 95.4211 450.07 95.9911 450.07C96.6245 450.07 97.1438 450.254 97.5491 450.621C97.9545 450.976 98.2268 451.463 98.3661 452.084C98.6195 451.451 98.9868 450.957 99.4681 450.602C99.9495 450.247 100.481 450.07 101.064 450.07C101.609 450.07 102.071 450.197 102.451 450.45C102.831 450.703 103.116 451.071 103.306 451.552C103.509 452.033 103.61 452.603 103.61 453.262ZM109.123 455.808C109.123 456.568 109.287 457.17 109.617 457.613C109.946 458.044 110.465 458.259 111.175 458.259C111.669 458.259 112.106 458.139 112.486 457.898C112.878 457.657 113.182 457.334 113.398 456.929C113.626 456.524 113.74 456.074 113.74 455.58V450.26H114.728V459H113.74V457.176C113.499 457.809 113.138 458.303 112.657 458.658C112.175 459.013 111.605 459.19 110.947 459.19C110.035 459.19 109.338 458.899 108.857 458.316C108.375 457.721 108.135 456.923 108.135 455.922V450.26H109.123V455.808ZM124.853 453.376C124.853 452.629 124.688 452.046 124.359 451.628C124.029 451.21 123.51 451.001 122.801 451.001C122.307 451.001 121.863 451.121 121.471 451.362C121.091 451.59 120.787 451.907 120.559 452.312C120.343 452.717 120.236 453.173 120.236 453.68V459H119.248V450.26H120.236V452.084C120.476 451.451 120.837 450.957 121.319 450.602C121.813 450.247 122.383 450.07 123.029 450.07C123.941 450.07 124.637 450.361 125.119 450.944C125.6 451.514 125.841 452.287 125.841 453.262V459H124.853V453.376ZM130.36 446.308C130.36 446.105 130.43 445.941 130.569 445.814C130.709 445.675 130.873 445.605 131.063 445.605C131.266 445.605 131.431 445.675 131.557 445.814C131.697 445.941 131.766 446.105 131.766 446.308C131.766 446.498 131.697 446.663 131.557 446.802C131.431 446.941 131.266 447.011 131.063 447.011C130.873 447.011 130.709 446.941 130.569 446.802C130.43 446.663 130.36 446.498 130.36 446.308ZM130.569 450.26H131.557V459H130.569V450.26ZM136.448 454.63C136.448 455.339 136.6 455.966 136.904 456.511C137.208 457.056 137.62 457.486 138.139 457.803C138.671 458.107 139.267 458.259 139.925 458.259C140.394 458.259 140.831 458.189 141.236 458.05C141.642 457.911 141.99 457.733 142.281 457.518C142.585 457.29 142.801 457.062 142.927 456.834V458.069C142.661 458.386 142.25 458.652 141.692 458.867C141.148 459.082 140.559 459.19 139.925 459.19C139.077 459.19 138.317 458.994 137.645 458.601C136.974 458.208 136.436 457.67 136.03 456.986C135.638 456.289 135.441 455.504 135.441 454.63C135.441 453.743 135.638 452.958 136.03 452.274C136.436 451.59 136.974 451.052 137.645 450.659C138.317 450.266 139.077 450.07 139.925 450.07C140.559 450.07 141.148 450.184 141.692 450.412C142.25 450.627 142.661 450.887 142.927 451.191V452.426C142.801 452.185 142.585 451.957 142.281 451.742C141.99 451.527 141.642 451.349 141.236 451.21C140.831 451.071 140.394 451.001 139.925 451.001C139.267 451.001 138.671 451.159 138.139 451.476C137.62 451.78 137.208 452.204 136.904 452.749C136.6 453.294 136.448 453.921 136.448 454.63ZM147.134 456.378C147.134 456.809 147.229 457.17 147.419 457.461C147.622 457.752 147.888 457.974 148.217 458.126C148.559 458.265 148.933 458.335 149.338 458.335C149.832 458.335 150.282 458.221 150.687 457.993C151.105 457.765 151.441 457.429 151.694 456.986C151.948 456.543 152.074 455.998 152.074 455.352L152.302 456.188C152.302 456.872 152.138 457.436 151.808 457.879C151.479 458.322 151.067 458.652 150.573 458.867C150.079 459.082 149.579 459.19 149.072 459.19C148.578 459.19 148.103 459.089 147.647 458.886C147.191 458.671 146.824 458.36 146.545 457.955C146.267 457.55 146.127 457.037 146.127 456.416C146.127 455.567 146.419 454.896 147.001 454.402C147.597 453.908 148.401 453.661 149.414 453.661C149.984 453.661 150.472 453.731 150.877 453.87C151.295 453.997 151.637 454.142 151.903 454.307C152.169 454.472 152.359 454.611 152.473 454.725V455.352C152.043 455.048 151.58 454.826 151.086 454.687C150.605 454.535 150.098 454.459 149.566 454.459C149.072 454.459 148.642 454.529 148.274 454.668C147.92 454.807 147.641 455.016 147.438 455.295C147.236 455.574 147.134 455.935 147.134 456.378ZM147.172 451.856L146.678 451.115C147.008 450.887 147.432 450.659 147.951 450.431C148.483 450.19 149.136 450.07 149.908 450.07C150.567 450.07 151.131 450.178 151.599 450.393C152.068 450.608 152.429 450.919 152.682 451.324C152.936 451.729 153.062 452.223 153.062 452.806V459H152.074V452.939C152.074 452.686 152.036 452.445 151.96 452.217C151.884 451.976 151.758 451.761 151.58 451.571C151.416 451.381 151.188 451.229 150.896 451.115C150.605 451.001 150.25 450.944 149.832 450.944C149.402 450.944 149.015 450.995 148.673 451.096C148.331 451.197 148.034 451.318 147.78 451.457C147.54 451.596 147.337 451.729 147.172 451.856ZM155.967 450.26H159.805V451.191H155.967V450.26ZM157.392 447.22H158.38V459H157.392V447.22ZM166.279 459.19C165.494 459.19 164.797 458.994 164.189 458.601C163.581 458.208 163.1 457.67 162.745 456.986C162.403 456.289 162.232 455.498 162.232 454.611C162.232 453.724 162.409 452.939 162.764 452.255C163.119 451.571 163.613 451.039 164.246 450.659C164.879 450.266 165.608 450.07 166.431 450.07C167.229 450.07 167.926 450.254 168.521 450.621C169.129 450.988 169.598 451.501 169.927 452.16C170.269 452.806 170.44 453.553 170.44 454.402C170.44 454.478 170.434 454.56 170.421 454.649C170.421 454.738 170.415 454.814 170.402 454.877H162.859V454.022H169.661L169.243 454.611C169.268 454.548 169.294 454.465 169.319 454.364C169.357 454.25 169.376 454.142 169.376 454.041C169.376 453.446 169.243 452.914 168.977 452.445C168.724 451.976 168.375 451.609 167.932 451.343C167.489 451.077 166.988 450.944 166.431 450.944C165.785 450.944 165.221 451.096 164.74 451.4C164.271 451.691 163.904 452.109 163.638 452.654C163.372 453.186 163.239 453.819 163.239 454.554C163.239 455.301 163.366 455.954 163.619 456.511C163.885 457.068 164.252 457.499 164.721 457.803C165.202 458.107 165.76 458.259 166.393 458.259C167.064 458.259 167.647 458.113 168.141 457.822C168.648 457.531 169.097 457.075 169.49 456.454L170.288 456.967C169.794 457.727 169.218 458.291 168.559 458.658C167.913 459.013 167.153 459.19 166.279 459.19Z" fill="#141414"/>
<path d="M96.304 476.32L95.424 477.536C94.88 476.992 93.696 476.24 92.736 475.792L93.568 474.688C94.512 475.088 95.728 475.76 96.304 476.32ZM95.504 480.432L94.64 481.664C94.08 481.136 92.896 480.432 91.92 480.016L92.736 478.896C93.696 479.264 94.896 479.904 95.504 480.432ZM94.928 483.04L96.096 483.936C95.376 485.632 94.464 487.552 93.664 489.056L92.336 488.176C93.072 486.944 94.144 484.88 94.928 483.04ZM101.936 485.568H104.096V484.592H101.936V485.568ZM98.576 484.592V485.568H100.528V484.592H98.576ZM100.528 482.64H98.576V483.568H100.528V482.64ZM104.096 482.64H101.936V483.568H104.096V482.64ZM100.08 478.72V479.6H102.448V478.72H100.08ZM100.08 476.816V477.664H102.448V476.816H100.08ZM106.656 485.568V486.752H105.52V487.824C105.52 488.496 105.344 488.832 104.864 489.04C104.368 489.232 103.6 489.232 102.48 489.232C102.384 488.88 102.16 488.384 102 488.064C102.768 488.096 103.568 488.096 103.776 488.08C104.016 488.064 104.096 488.016 104.096 487.808V486.752H98.576V489.216H97.184V486.752H95.824V485.568H97.184V481.552H100.528V480.8H95.968V479.6H98.656V478.72H96.928V477.664H98.656V476.816H96.576V475.728H98.656V474.56H100.08V475.728H102.448V474.56H103.872V475.728H106.112V476.816H103.872V477.664H105.84V478.72H103.872V479.6H106.576V480.8H101.936V481.552H105.52V485.568H106.656ZM122.224 479.664H119.84V480.816H122.224V479.664ZM126.016 480.816V479.664H123.504V480.816H126.016ZM123.504 483.104H126.016V481.904H123.504V483.104ZM119.84 483.104H122.224V481.904H119.84V483.104ZM119.84 484.224V486.72H118.512V478.544H122.656C121.792 478.144 120.832 477.712 120.016 477.408L120.96 476.608C121.6 476.816 122.336 477.104 123.04 477.424C123.664 477.104 124.304 476.688 124.832 476.304H118.608V475.168H126.176L126.464 475.088L127.36 475.808C126.544 476.592 125.44 477.376 124.304 477.984C124.736 478.176 125.12 478.368 125.44 478.544H127.36V485.392C127.36 486.048 127.216 486.368 126.784 486.56C126.352 486.768 125.68 486.768 124.688 486.768C124.64 486.416 124.464 485.952 124.304 485.632C124.96 485.648 125.584 485.648 125.76 485.648C125.968 485.632 126.016 485.584 126.016 485.392V484.224H123.504V486.688H122.224V484.224H119.84ZM117.216 476.992L116.064 477.808C115.648 477.152 114.752 476.048 114.032 475.264L115.136 474.576C115.872 475.344 116.752 476.352 117.216 476.992ZM117.072 482.128L117.808 482.4C117.584 483.744 117.264 484.912 116.816 485.92C117.84 487.488 119.696 487.728 122.432 487.728C124.112 487.728 126.544 487.648 128.24 487.488C128.032 487.808 127.84 488.48 127.76 488.88C126.208 488.976 124.192 489.024 122.416 489.024C119.392 489.024 117.472 488.704 116.24 487.056C115.664 488.032 114.96 488.752 114.16 489.296C113.968 489.008 113.472 488.496 113.184 488.288C114.688 487.36 115.776 485.68 116.304 483.328H114.736C114.336 483.328 113.904 483.44 113.776 483.568C113.696 483.232 113.424 482.576 113.28 482.304C113.504 482.24 113.776 482.128 114.064 481.808C114.384 481.488 115.216 480.384 115.856 479.456H113.52V478.256H116.8L116.992 478.176L117.936 478.608C117.312 479.504 116.192 481.072 115.312 482.16H116.832L117.072 482.128Z" fill="#141414"/>
<defs>
<linearGradient id="paint0_linear_3152_2062" x1="-1.9233e-05" y1="110" x2="220" y2="110" gradientUnits="userSpaceOnUse">
<stop stop-color="#6DCA1D"/>
<stop offset="1" stop-color="#4DB0FF"/>
</linearGradient>
<linearGradient id="paint1_linear_3152_2062" x1="-1.9233e-05" y1="302" x2="220" y2="302" gradientUnits="userSpaceOnUse">
<stop stop-color="#6DCA1D"/>
<stop offset="1" stop-color="#4DB0FF"/>
</linearGradient>
<linearGradient id="paint2_linear_3152_2062" x1="-1.9233e-05" y1="494" x2="220" y2="494" gradientUnits="userSpaceOnUse">
<stop stop-color="#6DCA1D"/>
<stop offset="1" stop-color="#4DB0FF"/>
</linearGradient>
</defs>
</svg>
