<svg width="654" height="238" viewBox="0 0 654 238" fill="none" xmlns="http://www.w3.org/2000/svg">
<path opacity="0.5" d="M237 119C237 184.17 184.17 237 119 237C53.8304 237 0.999968 184.17 0.999979 119C0.999991 53.8304 53.8304 1.00001 119 1.00002C184.17 1.00003 237 53.8304 237 119Z" stroke="url(#paint0_linear_3152_2043)" stroke-width="2"/>
<path opacity="0.5" d="M445 119C445 184.17 392.17 237 327 237C261.83 237 209 184.17 209 119C209 53.8304 261.83 1.00001 327 1.00002C392.17 1.00003 445 53.8304 445 119Z" stroke="url(#paint1_linear_3152_2043)" stroke-width="2"/>
<path opacity="0.5" d="M653 119C653 184.17 600.17 237 535 237C469.83 237 417 184.17 417 119C417 53.8304 469.83 1.00001 535 1.00002C600.17 1.00003 653 53.8304 653 119Z" stroke="url(#paint2_linear_3152_2043)" stroke-width="2"/>
<path d="M290.163 67H291.263V81H290.163V67ZM301.978 75.08C301.978 74.2933 301.805 73.68 301.458 73.24C301.111 72.8 300.565 72.58 299.818 72.58C299.298 72.58 298.831 72.7067 298.418 72.96C298.018 73.2 297.698 73.5333 297.458 73.96C297.231 74.3867 297.118 74.8667 297.118 75.4V81H296.078V71.8H297.118V73.72C297.371 73.0533 297.751 72.5333 298.258 72.16C298.778 71.7867 299.378 71.6 300.058 71.6C301.018 71.6 301.751 71.9067 302.258 72.52C302.765 73.12 303.018 73.9333 303.018 74.96V81H301.978V75.08ZM313.676 75.08C313.676 74.2933 313.502 73.68 313.156 73.24C312.809 72.8 312.262 72.58 311.516 72.58C310.996 72.58 310.529 72.7067 310.116 72.96C309.716 73.2 309.396 73.5333 309.156 73.96C308.929 74.3867 308.816 74.8667 308.816 75.4V81H307.776V71.8H308.816V73.72C309.069 73.0533 309.449 72.5333 309.956 72.16C310.476 71.7867 311.076 71.6 311.756 71.6C312.716 71.6 313.449 71.9067 313.956 72.52C314.462 73.12 314.716 73.9333 314.716 74.96V81H313.676V75.08ZM318.673 76.4C318.673 75.4667 318.88 74.64 319.293 73.92C319.707 73.2 320.267 72.6333 320.973 72.22C321.693 71.8067 322.5 71.6 323.393 71.6C324.287 71.6 325.087 71.8067 325.793 72.22C326.513 72.6333 327.08 73.2 327.493 73.92C327.907 74.64 328.113 75.4667 328.113 76.4C328.113 77.32 327.907 78.1467 327.493 78.88C327.08 79.6 326.513 80.1667 325.793 80.58C325.087 80.9933 324.287 81.2 323.393 81.2C322.5 81.2 321.693 80.9933 320.973 80.58C320.267 80.1667 319.707 79.6 319.293 78.88C318.88 78.1467 318.673 77.32 318.673 76.4ZM319.733 76.4C319.733 77.1467 319.893 77.8067 320.213 78.38C320.533 78.9533 320.967 79.4067 321.513 79.74C322.073 80.06 322.7 80.22 323.393 80.22C324.087 80.22 324.707 80.06 325.253 79.74C325.813 79.4067 326.253 78.9533 326.573 78.38C326.893 77.8067 327.053 77.1467 327.053 76.4C327.053 75.6667 326.893 75.0133 326.573 74.44C326.253 73.8533 325.813 73.4 325.253 73.08C324.707 72.7467 324.087 72.58 323.393 72.58C322.7 72.58 322.073 72.7467 321.513 73.08C320.967 73.4 320.533 73.8467 320.213 74.42C319.893 74.9933 319.733 75.6533 319.733 76.4ZM330.276 71.8H331.456L334.516 79.3L337.576 71.8H338.756L334.516 81.54L330.276 71.8ZM342.169 78.24C342.169 78.6933 342.269 79.0733 342.469 79.38C342.683 79.6867 342.963 79.92 343.309 80.08C343.669 80.2267 344.063 80.3 344.489 80.3C345.009 80.3 345.483 80.18 345.909 79.94C346.349 79.7 346.703 79.3467 346.969 78.88C347.236 78.4133 347.369 77.84 347.369 77.16L347.609 78.04C347.609 78.76 347.436 79.3533 347.089 79.82C346.743 80.2867 346.309 80.6333 345.789 80.86C345.269 81.0867 344.743 81.2 344.209 81.2C343.689 81.2 343.189 81.0933 342.709 80.88C342.229 80.6533 341.843 80.3267 341.549 79.9C341.256 79.4733 341.109 78.9333 341.109 78.28C341.109 77.3867 341.416 76.68 342.029 76.16C342.656 75.64 343.503 75.38 344.569 75.38C345.169 75.38 345.683 75.4533 346.109 75.6C346.549 75.7333 346.909 75.8867 347.189 76.06C347.469 76.2333 347.669 76.38 347.789 76.5V77.16C347.336 76.84 346.849 76.6067 346.329 76.46C345.823 76.3 345.289 76.22 344.729 76.22C344.209 76.22 343.756 76.2933 343.369 76.44C342.996 76.5867 342.703 76.8067 342.489 77.1C342.276 77.3933 342.169 77.7733 342.169 78.24ZM342.209 73.48L341.689 72.7C342.036 72.46 342.483 72.22 343.029 71.98C343.589 71.7267 344.276 71.6 345.089 71.6C345.783 71.6 346.376 71.7133 346.869 71.94C347.363 72.1667 347.743 72.4933 348.009 72.92C348.276 73.3467 348.409 73.8667 348.409 74.48V81H347.369V74.62C347.369 74.3533 347.329 74.1 347.249 73.86C347.169 73.6067 347.036 73.38 346.849 73.18C346.676 72.98 346.436 72.82 346.129 72.7C345.823 72.58 345.449 72.52 345.009 72.52C344.556 72.52 344.149 72.5733 343.789 72.68C343.429 72.7867 343.116 72.9133 342.849 73.06C342.596 73.2067 342.383 73.3467 342.209 73.48ZM351.467 71.8H355.507V72.78H351.467V71.8ZM352.967 68.6H354.007V81H352.967V68.6ZM362.322 81.2C361.495 81.2 360.762 80.9933 360.122 80.58C359.482 80.1667 358.975 79.6 358.602 78.88C358.242 78.1467 358.062 77.3133 358.062 76.38C358.062 75.4467 358.248 74.62 358.622 73.9C358.995 73.18 359.515 72.62 360.182 72.22C360.848 71.8067 361.615 71.6 362.482 71.6C363.322 71.6 364.055 71.7933 364.682 72.18C365.322 72.5667 365.815 73.1067 366.162 73.8C366.522 74.48 366.702 75.2667 366.702 76.16C366.702 76.24 366.695 76.3267 366.682 76.42C366.682 76.5133 366.675 76.5933 366.662 76.66H358.722V75.76H365.882L365.442 76.38C365.468 76.3133 365.495 76.2267 365.522 76.12C365.562 76 365.582 75.8867 365.582 75.78C365.582 75.1533 365.442 74.5933 365.162 74.1C364.895 73.6067 364.528 73.22 364.062 72.94C363.595 72.66 363.068 72.52 362.482 72.52C361.802 72.52 361.208 72.68 360.702 73C360.208 73.3067 359.822 73.7467 359.542 74.32C359.262 74.88 359.122 75.5467 359.122 76.32C359.122 77.1067 359.255 77.7933 359.522 78.38C359.802 78.9667 360.188 79.42 360.682 79.74C361.188 80.06 361.775 80.22 362.442 80.22C363.148 80.22 363.762 80.0667 364.282 79.76C364.815 79.4533 365.288 78.9733 365.702 78.32L366.542 78.86C366.022 79.66 365.415 80.2533 364.722 80.64C364.042 81.0133 363.242 81.2 362.322 81.2Z" fill="#141414"/>
<path d="M315.913 105.129H311.663V106.03H315.913V105.129ZM311.595 107.968H315.913V107.016H311.646C311.629 107.322 311.612 107.645 311.595 107.968ZM316.355 110.892H312.7V112.422H316.355V110.892ZM317.341 109.107H311.493C311.459 109.328 311.425 109.549 311.391 109.77H317.749V114.207H316.355V113.629H312.7V114.241H311.357V109.974C311.119 111.283 310.728 112.609 310.065 113.697C309.776 113.476 309.096 113.17 308.705 113.034C310.031 110.943 310.184 108.053 310.184 106.132V103.99H317.341V109.107ZM313.601 98.805L315.046 99.349C314.961 99.502 314.859 99.638 314.757 99.791C316.049 100.556 317.545 101.474 318.344 102.086L317.528 103.412C316.712 102.749 315.182 101.746 313.873 100.913C313.431 101.389 312.955 101.848 312.445 102.273H315.692V103.259H312.173V102.511C311.357 103.174 310.456 103.752 309.572 104.228C309.419 103.871 308.994 103.089 308.722 102.749C310.643 101.865 312.547 100.454 313.601 98.805ZM320.503 100.556V109.906H319.024V100.556H320.503ZM322.135 98.805H323.665V112.354C323.665 113.272 323.461 113.731 322.917 113.969C322.39 114.241 321.506 114.292 320.129 114.292C320.061 113.867 319.84 113.153 319.619 112.711C320.588 112.745 321.472 112.745 321.744 112.728C322.033 112.728 322.135 112.643 322.135 112.337V98.805ZM339.441 100.471V101.78H331.961V100.471H335.072C334.885 99.995 334.664 99.451 334.46 99.026L336.024 98.618C336.313 99.196 336.653 99.91 336.874 100.471H339.441ZM333.151 109.209L334.392 109.583C333.967 110.773 333.287 112.133 332.675 113C332.42 112.796 331.91 112.422 331.587 112.252C332.216 111.453 332.794 110.297 333.151 109.209ZM339.475 108.478H336.585V114.241H335.055V108.478H331.791V107.135H335.055V105.588H331.689V104.262H333.542C333.474 103.684 333.236 102.8 332.947 102.137L334.239 101.814C334.511 102.477 334.783 103.344 334.868 103.905L333.61 104.262H336.296C336.602 103.548 336.959 102.511 337.129 101.797L338.591 102.103C338.302 102.851 338.013 103.633 337.724 104.262H339.713V105.588H336.585V107.135H339.475V108.478ZM337.18 109.651L338.234 109.073C338.795 109.872 339.373 110.943 339.645 111.623L338.54 112.286C338.268 111.572 337.69 110.467 337.18 109.651ZM347.176 104.381V105.843H345.442V114.258H343.895V105.843H341.906V106.251C341.906 108.699 341.685 112.099 340.172 114.258C339.934 113.969 339.288 113.493 338.965 113.323C340.308 111.351 340.427 108.478 340.427 106.251V100.369C342.314 100.046 344.405 99.519 345.629 98.992L346.87 100.148C345.476 100.692 343.64 101.1 341.906 101.406V104.381H347.176Z" fill="#141414"/>
<path d="M73.6581 76.96C73.8848 77.5467 74.1581 78.08 74.4781 78.56C74.8115 79.04 75.2181 79.4267 75.6981 79.72C76.1781 80 76.7515 80.14 77.4181 80.14C78.3248 80.14 79.0315 79.8933 79.5381 79.4C80.0581 78.8933 80.3181 78.2533 80.3181 77.48C80.3181 76.8 80.1648 76.2533 79.8581 75.84C79.5515 75.4267 79.1515 75.0933 78.6581 74.84C78.1781 74.5733 77.6715 74.34 77.1381 74.14C76.7381 73.9933 76.3181 73.82 75.8781 73.62C75.4515 73.4067 75.0515 73.1533 74.6781 72.86C74.3048 72.5533 73.9981 72.1867 73.7581 71.76C73.5315 71.3333 73.4181 70.82 73.4181 70.22C73.4181 69.5533 73.5781 68.9667 73.8981 68.46C74.2181 67.94 74.6648 67.54 75.2381 67.26C75.8115 66.9667 76.4581 66.82 77.1781 66.82C77.9248 66.82 78.5648 66.96 79.0981 67.24C79.6448 67.52 80.0981 67.8733 80.4581 68.3C80.8181 68.7267 81.0915 69.1667 81.2781 69.62L80.3181 70.16C80.1715 69.8 79.9581 69.4467 79.6781 69.1C79.4115 68.7533 79.0715 68.4667 78.6581 68.24C78.2448 68 77.7315 67.88 77.1181 67.88C76.3048 67.88 75.6781 68.0933 75.2381 68.52C74.7981 68.9333 74.5781 69.4533 74.5781 70.08C74.5781 70.6 74.7048 71.0467 74.9581 71.42C75.2115 71.7933 75.5915 72.1333 76.0981 72.44C76.6048 72.7333 77.2315 73.0133 77.9781 73.28C78.3648 73.4267 78.7648 73.6067 79.1781 73.82C79.5915 74.0333 79.9648 74.3 80.2981 74.62C80.6448 74.94 80.9248 75.3267 81.1381 75.78C81.3515 76.22 81.4581 76.7467 81.4581 77.36C81.4581 77.9333 81.3515 78.4533 81.1381 78.92C80.9381 79.3867 80.6515 79.7933 80.2781 80.14C79.9181 80.4733 79.4915 80.7333 78.9981 80.92C78.5048 81.0933 77.9715 81.18 77.3981 81.18C76.5848 81.18 75.8715 81.0133 75.2581 80.68C74.6448 80.3467 74.1315 79.9 73.7181 79.34C73.3048 78.78 72.9848 78.1733 72.7581 77.52L73.6581 76.96ZM84.1464 71.8H88.1864V72.78H84.1464V71.8ZM85.6464 68.6H86.6864V81H85.6464V68.6ZM92.5809 71.8V81H91.5409V71.8H92.5809ZM95.6409 73.02C95.4409 72.8733 95.2476 72.7667 95.0609 72.7C94.8876 72.62 94.6809 72.58 94.4409 72.58C93.9876 72.58 93.6209 72.7067 93.3409 72.96C93.0743 73.2133 92.8809 73.5533 92.7609 73.98C92.6409 74.4067 92.5809 74.88 92.5809 75.4H92.1009C92.1009 74.6667 92.2143 74.02 92.4409 73.46C92.6676 72.8867 92.9743 72.4333 93.3609 72.1C93.7609 71.7667 94.2009 71.6 94.6809 71.6C94.9743 71.6 95.2476 71.6467 95.5009 71.74C95.7676 71.82 96.0076 71.96 96.2209 72.16L95.6409 73.02ZM99.7462 78.24C99.7462 78.6933 99.8462 79.0733 100.046 79.38C100.26 79.6867 100.54 79.92 100.886 80.08C101.246 80.2267 101.64 80.3 102.066 80.3C102.586 80.3 103.06 80.18 103.486 79.94C103.926 79.7 104.28 79.3467 104.546 78.88C104.813 78.4133 104.946 77.84 104.946 77.16L105.186 78.04C105.186 78.76 105.013 79.3533 104.666 79.82C104.32 80.2867 103.886 80.6333 103.366 80.86C102.846 81.0867 102.32 81.2 101.786 81.2C101.266 81.2 100.766 81.0933 100.286 80.88C99.8062 80.6533 99.4196 80.3267 99.1262 79.9C98.8329 79.4733 98.6862 78.9333 98.6862 78.28C98.6862 77.3867 98.9929 76.68 99.6062 76.16C100.233 75.64 101.08 75.38 102.146 75.38C102.746 75.38 103.26 75.4533 103.686 75.6C104.126 75.7333 104.486 75.8867 104.766 76.06C105.046 76.2333 105.246 76.38 105.366 76.5V77.16C104.913 76.84 104.426 76.6067 103.906 76.46C103.4 76.3 102.866 76.22 102.306 76.22C101.786 76.22 101.333 76.2933 100.946 76.44C100.573 76.5867 100.28 76.8067 100.066 77.1C99.8529 77.3933 99.7462 77.7733 99.7462 78.24ZM99.7862 73.48L99.2662 72.7C99.6129 72.46 100.06 72.22 100.606 71.98C101.166 71.7267 101.853 71.6 102.666 71.6C103.36 71.6 103.953 71.7133 104.446 71.94C104.94 72.1667 105.32 72.4933 105.586 72.92C105.853 73.3467 105.986 73.8667 105.986 74.48V81H104.946V74.62C104.946 74.3533 104.906 74.1 104.826 73.86C104.746 73.6067 104.613 73.38 104.426 73.18C104.253 72.98 104.013 72.82 103.706 72.7C103.4 72.58 103.026 72.52 102.586 72.52C102.133 72.52 101.726 72.5733 101.366 72.68C101.006 72.7867 100.693 72.9133 100.426 73.06C100.173 73.2067 99.9596 73.3467 99.7862 73.48ZM109.044 71.8H113.084V72.78H109.044V71.8ZM110.544 68.6H111.584V81H110.544V68.6ZM119.899 81.2C119.072 81.2 118.339 80.9933 117.699 80.58C117.059 80.1667 116.552 79.6 116.179 78.88C115.819 78.1467 115.639 77.3133 115.639 76.38C115.639 75.4467 115.825 74.62 116.199 73.9C116.572 73.18 117.092 72.62 117.759 72.22C118.425 71.8067 119.192 71.6 120.059 71.6C120.899 71.6 121.632 71.7933 122.259 72.18C122.899 72.5667 123.392 73.1067 123.739 73.8C124.099 74.48 124.279 75.2667 124.279 76.16C124.279 76.24 124.272 76.3267 124.259 76.42C124.259 76.5133 124.252 76.5933 124.239 76.66H116.299V75.76H123.459L123.019 76.38C123.045 76.3133 123.072 76.2267 123.099 76.12C123.139 76 123.159 75.8867 123.159 75.78C123.159 75.1533 123.019 74.5933 122.739 74.1C122.472 73.6067 122.105 73.22 121.639 72.94C121.172 72.66 120.645 72.52 120.059 72.52C119.379 72.52 118.785 72.68 118.279 73C117.785 73.3067 117.399 73.7467 117.119 74.32C116.839 74.88 116.699 75.5467 116.699 76.32C116.699 77.1067 116.832 77.7933 117.099 78.38C117.379 78.9667 117.765 79.42 118.259 79.74C118.765 80.06 119.352 80.22 120.019 80.22C120.725 80.22 121.339 80.0667 121.859 79.76C122.392 79.4533 122.865 78.9733 123.279 78.32L124.119 78.86C123.599 79.66 122.992 80.2533 122.299 80.64C121.619 81.0133 120.819 81.2 119.899 81.2ZM127.654 81.6H128.714C128.714 82.1733 128.847 82.6867 129.114 83.14C129.381 83.5933 129.754 83.9533 130.234 84.22C130.727 84.4867 131.294 84.62 131.934 84.62C132.507 84.62 133.047 84.4867 133.554 84.22C134.061 83.9533 134.474 83.5333 134.794 82.96C135.127 82.4 135.294 81.68 135.294 80.8V71.8H136.334V80.8C136.334 81.8533 136.127 82.7333 135.714 83.44C135.301 84.16 134.761 84.7 134.094 85.06C133.427 85.42 132.707 85.6 131.934 85.6C131.094 85.6 130.347 85.4333 129.694 85.1C129.054 84.7667 128.554 84.2933 128.194 83.68C127.834 83.08 127.654 82.3867 127.654 81.6ZM127.434 76.4C127.434 75.4 127.634 74.5467 128.034 73.84C128.434 73.12 128.967 72.5667 129.634 72.18C130.314 71.7933 131.061 71.6 131.874 71.6C132.674 71.6 133.361 71.8133 133.934 72.24C134.507 72.6533 134.954 73.22 135.274 73.94C135.607 74.66 135.774 75.48 135.774 76.4C135.774 77.3067 135.607 78.1267 135.274 78.86C134.954 79.58 134.507 80.1533 133.934 80.58C133.361 80.9933 132.674 81.2 131.874 81.2C131.061 81.2 130.314 81.0067 129.634 80.62C128.967 80.2333 128.434 79.68 128.034 78.96C127.634 78.24 127.434 77.3867 127.434 76.4ZM128.494 76.4C128.494 77.2 128.647 77.8867 128.954 78.46C129.274 79.0333 129.701 79.4733 130.234 79.78C130.781 80.0733 131.374 80.22 132.014 80.22C132.587 80.22 133.121 80.0533 133.614 79.72C134.121 79.3867 134.527 78.9333 134.834 78.36C135.141 77.7733 135.294 77.1067 135.294 76.36C135.294 75.8267 135.207 75.3333 135.034 74.88C134.861 74.4267 134.614 74.0267 134.294 73.68C133.987 73.3333 133.634 73.0667 133.234 72.88C132.847 72.68 132.441 72.58 132.014 72.58C131.374 72.58 130.781 72.7333 130.234 73.04C129.701 73.3333 129.274 73.7667 128.954 74.34C128.647 74.9133 128.494 75.6 128.494 76.4ZM140.986 67.64C140.986 67.4267 141.06 67.2533 141.206 67.12C141.353 66.9733 141.526 66.9 141.726 66.9C141.94 66.9 142.113 66.9733 142.246 67.12C142.393 67.2533 142.466 67.4267 142.466 67.64C142.466 67.84 142.393 68.0133 142.246 68.16C142.113 68.3067 141.94 68.38 141.726 68.38C141.526 68.38 141.353 68.3067 141.206 68.16C141.06 68.0133 140.986 67.84 140.986 67.64ZM141.206 71.8H142.246V81H141.206V71.8ZM152.295 72.78H146.515V71.8H154.195L147.895 80.02H154.035V81H145.995L152.295 72.78ZM160.967 81.2C160.14 81.2 159.407 80.9933 158.767 80.58C158.127 80.1667 157.62 79.6 157.247 78.88C156.887 78.1467 156.707 77.3133 156.707 76.38C156.707 75.4467 156.893 74.62 157.267 73.9C157.64 73.18 158.16 72.62 158.827 72.22C159.493 71.8067 160.26 71.6 161.127 71.6C161.967 71.6 162.7 71.7933 163.327 72.18C163.967 72.5667 164.46 73.1067 164.807 73.8C165.167 74.48 165.347 75.2667 165.347 76.16C165.347 76.24 165.34 76.3267 165.327 76.42C165.327 76.5133 165.32 76.5933 165.307 76.66H157.367V75.76H164.527L164.087 76.38C164.113 76.3133 164.14 76.2267 164.167 76.12C164.207 76 164.227 75.8867 164.227 75.78C164.227 75.1533 164.087 74.5933 163.807 74.1C163.54 73.6067 163.173 73.22 162.707 72.94C162.24 72.66 161.713 72.52 161.127 72.52C160.447 72.52 159.853 72.68 159.347 73C158.853 73.3067 158.467 73.7467 158.187 74.32C157.907 74.88 157.767 75.5467 157.767 76.32C157.767 77.1067 157.9 77.7933 158.167 78.38C158.447 78.9667 158.833 79.42 159.327 79.74C159.833 80.06 160.42 80.22 161.087 80.22C161.793 80.22 162.407 80.0667 162.927 79.76C163.46 79.4533 163.933 78.9733 164.347 78.32L165.187 78.86C164.667 79.66 164.06 80.2533 163.367 80.64C162.687 81.0133 161.887 81.2 160.967 81.2Z" fill="#141414"/>
<path d="M103.938 101.1H102.697C102.153 101.95 101.558 102.715 100.963 103.293C100.742 103.038 100.198 102.494 99.892 102.256C100.895 101.355 101.847 99.978 102.374 98.601L103.785 99.009C103.666 99.298 103.547 99.57 103.394 99.859H107.457V101.1H104.601C105.111 101.542 105.655 102.086 105.961 102.443L104.941 103.344C104.601 102.885 103.87 102.154 103.309 101.627L103.938 101.1ZM108.579 107.407V108.954C109.956 110.348 112.557 111.776 115.532 112.354C115.209 112.694 114.75 113.34 114.529 113.748C112.115 113.136 110.007 111.878 108.579 110.62V114.326H106.896V110.569C105.281 112.065 103.105 113.221 100.878 113.833C100.674 113.442 100.215 112.83 99.892 112.507C102.68 111.895 105.417 110.501 106.896 108.75V107.407H103.122V110.535H101.456V106.064H106.896V104.959H100.317V103.582H106.896V102.579H108.273C107.984 102.324 107.508 101.95 107.219 101.763C108.137 100.998 108.919 99.825 109.327 98.601L110.772 98.958C110.67 99.264 110.534 99.553 110.415 99.859H115.294V101.1H111.962C112.506 101.508 113.101 102.035 113.441 102.409L112.37 103.344C111.996 102.885 111.248 102.188 110.636 101.695L111.367 101.1H109.718C109.344 101.661 108.936 102.171 108.511 102.579H108.579V103.582H114.886V104.959H108.579V106.064H113.968V109.056C113.968 109.77 113.815 110.093 113.322 110.297C112.795 110.501 112.081 110.518 111.146 110.518C111.044 110.11 110.789 109.617 110.602 109.26C111.231 109.294 111.911 109.294 112.081 109.277C112.285 109.277 112.353 109.226 112.353 109.056V107.407H108.579ZM131.019 108.138H136.289C135.337 107.611 134.453 106.965 133.688 106.268C132.855 106.982 131.954 107.611 131.019 108.138ZM131.529 112.337H135.694V109.532H131.529V112.337ZM128.911 103.922V107.526C130.22 106.982 131.512 106.2 132.651 105.231C132.039 104.551 131.512 103.837 131.087 103.157C130.628 103.718 130.118 104.211 129.625 104.636C129.472 104.449 129.183 104.177 128.911 103.922ZM126.531 109.549H127.67V105.792H126.531V109.549ZM124.406 105.792V109.549H125.511V105.792H124.406ZM125.511 101.1H124.406V104.466H125.511V101.1ZM127.67 104.466V101.1H126.531V104.466H127.67ZM135.456 101.797H132.124L131.971 102.018C132.396 102.749 132.974 103.531 133.671 104.245C134.385 103.497 134.997 102.681 135.456 101.797ZM136.493 100.403L137.513 100.913C136.884 102.579 135.915 104.024 134.742 105.248C135.83 106.149 137.139 106.931 138.601 107.424C138.278 107.713 137.802 108.342 137.581 108.75C137.462 108.699 137.343 108.648 137.224 108.597V114.258H135.694V113.731H131.529V114.275H130.033V108.648C129.829 108.75 129.608 108.852 129.404 108.937C129.285 108.716 129.098 108.444 128.911 108.206V110.909H124.406V112.371H123.216V99.723H128.911V103.157C130.237 102.035 131.41 100.403 132.09 98.686L133.569 99.111C133.382 99.57 133.161 100.029 132.923 100.471H136.221L136.493 100.403Z" fill="#141414"/>
<path d="M472.664 74C472.664 75.1867 472.917 76.2333 473.424 77.14C473.93 78.0467 474.61 78.76 475.464 79.28C476.317 79.8 477.27 80.06 478.324 80.06C478.99 80.06 479.597 79.9867 480.144 79.84C480.69 79.6933 481.184 79.4733 481.624 79.18C482.077 78.8867 482.477 78.54 482.824 78.14V79.62C482.237 80.14 481.597 80.5333 480.904 80.8C480.21 81.0533 479.35 81.18 478.324 81.18C477.35 81.18 476.444 81.0067 475.604 80.66C474.777 80.3 474.057 79.8 473.444 79.16C472.83 78.52 472.35 77.76 472.004 76.88C471.657 76 471.484 75.04 471.484 74C471.484 72.96 471.657 72 472.004 71.12C472.35 70.24 472.83 69.48 473.444 68.84C474.057 68.2 474.777 67.7067 475.604 67.36C476.444 67 477.35 66.82 478.324 66.82C479.35 66.82 480.21 66.9533 480.904 67.22C481.597 67.4733 482.237 67.86 482.824 68.38V69.84C482.477 69.44 482.077 69.1 481.624 68.82C481.17 68.5267 480.67 68.3067 480.124 68.16C479.577 68.0133 478.977 67.94 478.324 67.94C477.27 67.94 476.317 68.2 475.464 68.72C474.61 69.2267 473.93 69.9333 473.424 70.84C472.917 71.7467 472.664 72.8 472.664 74ZM486.675 76.4C486.675 75.4667 486.882 74.64 487.295 73.92C487.708 73.2 488.268 72.6333 488.975 72.22C489.695 71.8067 490.502 71.6 491.395 71.6C492.288 71.6 493.088 71.8067 493.795 72.22C494.515 72.6333 495.082 73.2 495.495 73.92C495.908 74.64 496.115 75.4667 496.115 76.4C496.115 77.32 495.908 78.1467 495.495 78.88C495.082 79.6 494.515 80.1667 493.795 80.58C493.088 80.9933 492.288 81.2 491.395 81.2C490.502 81.2 489.695 80.9933 488.975 80.58C488.268 80.1667 487.708 79.6 487.295 78.88C486.882 78.1467 486.675 77.32 486.675 76.4ZM487.735 76.4C487.735 77.1467 487.895 77.8067 488.215 78.38C488.535 78.9533 488.968 79.4067 489.515 79.74C490.075 80.06 490.702 80.22 491.395 80.22C492.088 80.22 492.708 80.06 493.255 79.74C493.815 79.4067 494.255 78.9533 494.575 78.38C494.895 77.8067 495.055 77.1467 495.055 76.4C495.055 75.6667 494.895 75.0133 494.575 74.44C494.255 73.8533 493.815 73.4 493.255 73.08C492.708 72.7467 492.088 72.58 491.395 72.58C490.702 72.58 490.075 72.7467 489.515 73.08C488.968 73.4 488.535 73.8467 488.215 74.42C487.895 74.9933 487.735 75.6533 487.735 76.4ZM511.791 74.96V81H510.751V75.08C510.751 74.28 510.598 73.6667 510.291 73.24C509.984 72.8 509.511 72.58 508.871 72.58C508.418 72.58 508.004 72.7 507.631 72.94C507.271 73.18 506.984 73.5133 506.771 73.94C506.558 74.3667 506.451 74.8533 506.451 75.4V81H505.411V75.08C505.411 74.28 505.258 73.6667 504.951 73.24C504.644 72.8 504.171 72.58 503.531 72.58C503.078 72.58 502.664 72.7 502.291 72.94C501.931 73.18 501.644 73.5133 501.431 73.94C501.218 74.3667 501.111 74.8533 501.111 75.4V81H500.071V71.8H501.111V73.66C501.351 73.0067 501.704 72.5 502.171 72.14C502.638 71.78 503.171 71.6 503.771 71.6C504.438 71.6 504.984 71.7933 505.411 72.18C505.838 72.5533 506.124 73.0667 506.271 73.72C506.538 73.0533 506.924 72.5333 507.431 72.16C507.938 71.7867 508.498 71.6 509.111 71.6C509.684 71.6 510.171 71.7333 510.571 72C510.971 72.2667 511.271 72.6533 511.471 73.16C511.684 73.6667 511.791 74.2667 511.791 74.96ZM528.274 74.96V81H527.234V75.08C527.234 74.28 527.08 73.6667 526.774 73.24C526.467 72.8 525.994 72.58 525.354 72.58C524.9 72.58 524.487 72.7 524.114 72.94C523.754 73.18 523.467 73.5133 523.254 73.94C523.04 74.3667 522.934 74.8533 522.934 75.4V81H521.894V75.08C521.894 74.28 521.74 73.6667 521.434 73.24C521.127 72.8 520.654 72.58 520.014 72.58C519.56 72.58 519.147 72.7 518.774 72.94C518.414 73.18 518.127 73.5133 517.914 73.94C517.7 74.3667 517.594 74.8533 517.594 75.4V81H516.554V71.8H517.594V73.66C517.834 73.0067 518.187 72.5 518.654 72.14C519.12 71.78 519.654 71.6 520.254 71.6C520.92 71.6 521.467 71.7933 521.894 72.18C522.32 72.5533 522.607 73.0667 522.754 73.72C523.02 73.0533 523.407 72.5333 523.914 72.16C524.42 71.7867 524.98 71.6 525.594 71.6C526.167 71.6 526.654 71.7333 527.054 72C527.454 72.2667 527.754 72.6533 527.954 73.16C528.167 73.6667 528.274 74.2667 528.274 74.96ZM534.077 77.64C534.077 78.44 534.25 79.0733 534.597 79.54C534.943 79.9933 535.49 80.22 536.237 80.22C536.757 80.22 537.217 80.0933 537.617 79.84C538.03 79.5867 538.35 79.2467 538.577 78.82C538.817 78.3933 538.937 77.92 538.937 77.4V71.8H539.977V81H538.937V79.08C538.683 79.7467 538.303 80.2667 537.797 80.64C537.29 81.0133 536.69 81.2 535.997 81.2C535.037 81.2 534.303 80.8933 533.797 80.28C533.29 79.6533 533.037 78.8133 533.037 77.76V71.8H534.077V77.64ZM550.634 75.08C550.634 74.2933 550.461 73.68 550.114 73.24C549.768 72.8 549.221 72.58 548.474 72.58C547.954 72.58 547.488 72.7067 547.074 72.96C546.674 73.2 546.354 73.5333 546.114 73.96C545.888 74.3867 545.774 74.8667 545.774 75.4V81H544.734V71.8H545.774V73.72C546.028 73.0533 546.408 72.5333 546.914 72.16C547.434 71.7867 548.034 71.6 548.714 71.6C549.674 71.6 550.408 71.9067 550.914 72.52C551.421 73.12 551.674 73.9333 551.674 74.96V81H550.634V75.08ZM556.432 67.64C556.432 67.4267 556.505 67.2533 556.652 67.12C556.799 66.9733 556.972 66.9 557.172 66.9C557.385 66.9 557.559 66.9733 557.692 67.12C557.839 67.2533 557.912 67.4267 557.912 67.64C557.912 67.84 557.839 68.0133 557.692 68.16C557.559 68.3067 557.385 68.38 557.172 68.38C556.972 68.38 556.799 68.3067 556.652 68.16C556.505 68.0133 556.432 67.84 556.432 67.64ZM556.652 71.8H557.692V81H556.652V71.8ZM562.84 76.4C562.84 77.1467 563 77.8067 563.32 78.38C563.64 78.9533 564.074 79.4067 564.62 79.74C565.18 80.06 565.807 80.22 566.5 80.22C566.994 80.22 567.454 80.1467 567.88 80C568.307 79.8533 568.674 79.6667 568.98 79.44C569.3 79.2 569.527 78.96 569.66 78.72V80.02C569.38 80.3533 568.947 80.6333 568.36 80.86C567.787 81.0867 567.167 81.2 566.5 81.2C565.607 81.2 564.807 80.9933 564.1 80.58C563.394 80.1667 562.827 79.6 562.4 78.88C561.987 78.1467 561.78 77.32 561.78 76.4C561.78 75.4667 561.987 74.64 562.4 73.92C562.827 73.2 563.394 72.6333 564.1 72.22C564.807 71.8067 565.607 71.6 566.5 71.6C567.167 71.6 567.787 71.72 568.36 71.96C568.947 72.1867 569.38 72.46 569.66 72.78V74.08C569.527 73.8267 569.3 73.5867 568.98 73.36C568.674 73.1333 568.307 72.9467 567.88 72.8C567.454 72.6533 566.994 72.58 566.5 72.58C565.807 72.58 565.18 72.7467 564.62 73.08C564.074 73.4 563.64 73.8467 563.32 74.42C563 74.9933 562.84 75.6533 562.84 76.4ZM574.089 78.24C574.089 78.6933 574.189 79.0733 574.389 79.38C574.602 79.6867 574.882 79.92 575.229 80.08C575.589 80.2267 575.982 80.3 576.409 80.3C576.929 80.3 577.402 80.18 577.829 79.94C578.269 79.7 578.622 79.3467 578.889 78.88C579.155 78.4133 579.289 77.84 579.289 77.16L579.529 78.04C579.529 78.76 579.355 79.3533 579.009 79.82C578.662 80.2867 578.229 80.6333 577.709 80.86C577.189 81.0867 576.662 81.2 576.129 81.2C575.609 81.2 575.109 81.0933 574.629 80.88C574.149 80.6533 573.762 80.3267 573.469 79.9C573.175 79.4733 573.029 78.9333 573.029 78.28C573.029 77.3867 573.335 76.68 573.949 76.16C574.575 75.64 575.422 75.38 576.489 75.38C577.089 75.38 577.602 75.4533 578.029 75.6C578.469 75.7333 578.829 75.8867 579.109 76.06C579.389 76.2333 579.589 76.38 579.709 76.5V77.16C579.255 76.84 578.769 76.6067 578.249 76.46C577.742 76.3 577.209 76.22 576.649 76.22C576.129 76.22 575.675 76.2933 575.289 76.44C574.915 76.5867 574.622 76.8067 574.409 77.1C574.195 77.3933 574.089 77.7733 574.089 78.24ZM574.129 73.48L573.609 72.7C573.955 72.46 574.402 72.22 574.949 71.98C575.509 71.7267 576.195 71.6 577.009 71.6C577.702 71.6 578.295 71.7133 578.789 71.94C579.282 72.1667 579.662 72.4933 579.929 72.92C580.195 73.3467 580.329 73.8667 580.329 74.48V81H579.289V74.62C579.289 74.3533 579.249 74.1 579.169 73.86C579.089 73.6067 578.955 73.38 578.769 73.18C578.595 72.98 578.355 72.82 578.049 72.7C577.742 72.58 577.369 72.52 576.929 72.52C576.475 72.52 576.069 72.5733 575.709 72.68C575.349 72.7867 575.035 72.9133 574.769 73.06C574.515 73.2067 574.302 73.3467 574.129 73.48ZM583.387 71.8H587.427V72.78H583.387V71.8ZM584.887 68.6H585.927V81H584.887V68.6ZM594.241 81.2C593.415 81.2 592.681 80.9933 592.041 80.58C591.401 80.1667 590.895 79.6 590.521 78.88C590.161 78.1467 589.981 77.3133 589.981 76.38C589.981 75.4467 590.168 74.62 590.541 73.9C590.915 73.18 591.435 72.62 592.101 72.22C592.768 71.8067 593.535 71.6 594.401 71.6C595.241 71.6 595.975 71.7933 596.601 72.18C597.241 72.5667 597.735 73.1067 598.081 73.8C598.441 74.48 598.621 75.2667 598.621 76.16C598.621 76.24 598.615 76.3267 598.601 76.42C598.601 76.5133 598.595 76.5933 598.581 76.66H590.641V75.76H597.801L597.361 76.38C597.388 76.3133 597.415 76.2267 597.441 76.12C597.481 76 597.501 75.8867 597.501 75.78C597.501 75.1533 597.361 74.5933 597.081 74.1C596.815 73.6067 596.448 73.22 595.981 72.94C595.515 72.66 594.988 72.52 594.401 72.52C593.721 72.52 593.128 72.68 592.621 73C592.128 73.3067 591.741 73.7467 591.461 74.32C591.181 74.88 591.041 75.5467 591.041 76.32C591.041 77.1067 591.175 77.7933 591.441 78.38C591.721 78.9667 592.108 79.42 592.601 79.74C593.108 80.06 593.695 80.22 594.361 80.22C595.068 80.22 595.681 80.0667 596.201 79.76C596.735 79.4533 597.208 78.9733 597.621 78.32L598.461 78.86C597.941 79.66 597.335 80.2533 596.641 80.64C595.961 81.0133 595.161 81.2 594.241 81.2Z" fill="#141414"/>
<path d="M520.448 100.59L519.513 101.882C518.935 101.304 517.677 100.505 516.657 100.029L517.541 98.856C518.544 99.281 519.836 99.995 520.448 100.59ZM519.598 104.959L518.68 106.268C518.085 105.707 516.827 104.959 515.79 104.517L516.657 103.327C517.677 103.718 518.952 104.398 519.598 104.959ZM518.986 107.73L520.227 108.682C519.462 110.484 518.493 112.524 517.643 114.122L516.232 113.187C517.014 111.878 518.153 109.685 518.986 107.73ZM526.432 110.416H528.727V109.379H526.432V110.416ZM522.862 109.379V110.416H524.936V109.379H522.862ZM524.936 107.305H522.862V108.291H524.936V107.305ZM528.727 107.305H526.432V108.291H528.727V107.305ZM524.46 103.14V104.075H526.976V103.14H524.46ZM524.46 101.117V102.018H526.976V101.117H524.46ZM531.447 110.416V111.674H530.24V112.813C530.24 113.527 530.053 113.884 529.543 114.105C529.016 114.309 528.2 114.309 527.01 114.309C526.908 113.935 526.67 113.408 526.5 113.068C527.316 113.102 528.166 113.102 528.387 113.085C528.642 113.068 528.727 113.017 528.727 112.796V111.674H522.862V114.292H521.383V111.674H519.938V110.416H521.383V106.149H524.936V105.35H520.091V104.075H522.947V103.14H521.111V102.018H522.947V101.117H520.737V99.961H522.947V98.72H524.46V99.961H526.976V98.72H528.489V99.961H530.869V101.117H528.489V102.018H530.58V103.14H528.489V104.075H531.362V105.35H526.432V106.149H530.24V110.416H531.447ZM547.988 104.143H545.455V105.367H547.988V104.143ZM552.017 105.367V104.143H549.348V105.367H552.017ZM549.348 107.798H552.017V106.523H549.348V107.798ZM545.455 107.798H547.988V106.523H545.455V107.798ZM545.455 108.988V111.64H544.044V102.953H548.447C547.529 102.528 546.509 102.069 545.642 101.746L546.645 100.896C547.325 101.117 548.107 101.423 548.855 101.763C549.518 101.423 550.198 100.981 550.759 100.573H544.146V99.366H552.187L552.493 99.281L553.445 100.046C552.578 100.879 551.405 101.712 550.198 102.358C550.657 102.562 551.065 102.766 551.405 102.953H553.445V110.229C553.445 110.926 553.292 111.266 552.833 111.47C552.374 111.691 551.66 111.691 550.606 111.691C550.555 111.317 550.368 110.824 550.198 110.484C550.895 110.501 551.558 110.501 551.745 110.501C551.966 110.484 552.017 110.433 552.017 110.229V108.988H549.348V111.606H547.988V108.988H545.455ZM542.667 101.304L541.443 102.171C541.001 101.474 540.049 100.301 539.284 99.468L540.457 98.737C541.239 99.553 542.174 100.624 542.667 101.304ZM542.514 106.761L543.296 107.05C543.058 108.478 542.718 109.719 542.242 110.79C543.33 112.456 545.302 112.711 548.209 112.711C549.994 112.711 552.578 112.626 554.38 112.456C554.159 112.796 553.955 113.51 553.87 113.935C552.221 114.037 550.079 114.088 548.192 114.088C544.979 114.088 542.939 113.748 541.63 111.997C541.018 113.034 540.27 113.799 539.42 114.377C539.216 114.071 538.689 113.527 538.383 113.306C539.981 112.32 541.137 110.535 541.698 108.036H540.032C539.607 108.036 539.148 108.155 539.012 108.291C538.927 107.934 538.638 107.237 538.485 106.948C538.723 106.88 539.012 106.761 539.318 106.421C539.658 106.081 540.542 104.908 541.222 103.922H538.74V102.647H542.225L542.429 102.562L543.432 103.021C542.769 103.973 541.579 105.639 540.644 106.795H542.259L542.514 106.761Z" fill="#141414"/>
<defs>
<linearGradient id="paint0_linear_3152_2043" x1="-2.08066e-05" y1="119" x2="238" y2="119" gradientUnits="userSpaceOnUse">
<stop stop-color="#6DCA1D"/>
<stop offset="1" stop-color="#4DB0FF"/>
</linearGradient>
<linearGradient id="paint1_linear_3152_2043" x1="208" y1="119" x2="446" y2="119" gradientUnits="userSpaceOnUse">
<stop stop-color="#6DCA1D"/>
<stop offset="1" stop-color="#4DB0FF"/>
</linearGradient>
<linearGradient id="paint2_linear_3152_2043" x1="416" y1="119" x2="654" y2="119" gradientUnits="userSpaceOnUse">
<stop stop-color="#6DCA1D"/>
<stop offset="1" stop-color="#4DB0FF"/>
</linearGradient>
</defs>
</svg>
