<svg width="820" height="300" viewBox="0 0 820 300" fill="none" xmlns="http://www.w3.org/2000/svg">
<circle opacity="0.5" cx="150" cy="150" r="148.75" stroke="url(#paint0_linear_3152_2024)" stroke-width="2.5"/>
<circle opacity="0.5" cx="410" cy="150" r="148.75" stroke="url(#paint1_linear_3152_2024)" stroke-width="2.5"/>
<circle opacity="0.5" cx="670" cy="150" r="148.75" stroke="url(#paint2_linear_3152_2024)" stroke-width="2.5"/>
<path d="M364.596 81.2H365.916V98H364.596V81.2ZM378.774 90.896C378.774 89.952 378.566 89.216 378.15 88.688C377.734 88.16 377.078 87.896 376.182 87.896C375.558 87.896 374.998 88.048 374.502 88.352C374.022 88.64 373.638 89.04 373.35 89.552C373.078 90.064 372.942 90.64 372.942 91.28V98H371.694V86.96H372.942V89.264C373.246 88.464 373.702 87.84 374.31 87.392C374.934 86.944 375.654 86.72 376.47 86.72C377.622 86.72 378.502 87.088 379.11 87.824C379.718 88.544 380.022 89.52 380.022 90.752V98H378.774V90.896ZM392.811 90.896C392.811 89.952 392.603 89.216 392.187 88.688C391.771 88.16 391.115 87.896 390.219 87.896C389.595 87.896 389.035 88.048 388.539 88.352C388.059 88.64 387.675 89.04 387.387 89.552C387.115 90.064 386.979 90.64 386.979 91.28V98H385.731V86.96H386.979V89.264C387.283 88.464 387.739 87.84 388.347 87.392C388.971 86.944 389.691 86.72 390.507 86.72C391.659 86.72 392.539 87.088 393.147 87.824C393.755 88.544 394.059 89.52 394.059 90.752V98H392.811V90.896ZM398.808 92.48C398.808 91.36 399.056 90.368 399.552 89.504C400.048 88.64 400.72 87.96 401.568 87.464C402.432 86.968 403.4 86.72 404.472 86.72C405.544 86.72 406.504 86.968 407.352 87.464C408.216 87.96 408.896 88.64 409.392 89.504C409.888 90.368 410.136 91.36 410.136 92.48C410.136 93.584 409.888 94.576 409.392 95.456C408.896 96.32 408.216 97 407.352 97.496C406.504 97.992 405.544 98.24 404.472 98.24C403.4 98.24 402.432 97.992 401.568 97.496C400.72 97 400.048 96.32 399.552 95.456C399.056 94.576 398.808 93.584 398.808 92.48ZM400.08 92.48C400.08 93.376 400.272 94.168 400.656 94.856C401.04 95.544 401.56 96.088 402.216 96.488C402.888 96.872 403.64 97.064 404.472 97.064C405.304 97.064 406.048 96.872 406.704 96.488C407.376 96.088 407.904 95.544 408.288 94.856C408.672 94.168 408.864 93.376 408.864 92.48C408.864 91.6 408.672 90.816 408.288 90.128C407.904 89.424 407.376 88.88 406.704 88.496C406.048 88.096 405.304 87.896 404.472 87.896C403.64 87.896 402.888 88.096 402.216 88.496C401.56 88.88 401.04 89.416 400.656 90.104C400.272 90.792 400.08 91.584 400.08 92.48ZM412.732 86.96H414.148L417.82 95.96L421.492 86.96H422.908L417.82 98.648L412.732 86.96ZM427.003 94.688C427.003 95.232 427.123 95.688 427.363 96.056C427.619 96.424 427.955 96.704 428.371 96.896C428.803 97.072 429.275 97.16 429.787 97.16C430.411 97.16 430.979 97.016 431.491 96.728C432.019 96.44 432.443 96.016 432.763 95.456C433.083 94.896 433.243 94.208 433.243 93.392L433.531 94.448C433.531 95.312 433.323 96.024 432.907 96.584C432.491 97.144 431.971 97.56 431.347 97.832C430.723 98.104 430.091 98.24 429.451 98.24C428.827 98.24 428.227 98.112 427.651 97.856C427.075 97.584 426.611 97.192 426.259 96.68C425.907 96.168 425.731 95.52 425.731 94.736C425.731 93.664 426.099 92.816 426.835 92.192C427.587 91.568 428.603 91.256 429.883 91.256C430.603 91.256 431.219 91.344 431.731 91.52C432.259 91.68 432.691 91.864 433.027 92.072C433.363 92.28 433.603 92.456 433.747 92.6V93.392C433.203 93.008 432.619 92.728 431.995 92.552C431.387 92.36 430.747 92.264 430.075 92.264C429.451 92.264 428.907 92.352 428.443 92.528C427.995 92.704 427.643 92.968 427.387 93.32C427.131 93.672 427.003 94.128 427.003 94.688ZM427.051 88.976L426.427 88.04C426.843 87.752 427.379 87.464 428.035 87.176C428.707 86.872 429.531 86.72 430.507 86.72C431.339 86.72 432.051 86.856 432.643 87.128C433.235 87.4 433.691 87.792 434.011 88.304C434.331 88.816 434.491 89.44 434.491 90.176V98H433.243V90.344C433.243 90.024 433.195 89.72 433.099 89.432C433.003 89.128 432.843 88.856 432.619 88.616C432.411 88.376 432.123 88.184 431.755 88.04C431.387 87.896 430.939 87.824 430.411 87.824C429.867 87.824 429.379 87.888 428.947 88.016C428.515 88.144 428.139 88.296 427.819 88.472C427.515 88.648 427.259 88.816 427.051 88.976ZM438.161 86.96H443.009V88.136H438.161V86.96ZM439.961 83.12H441.209V98H439.961V83.12ZM451.186 98.24C450.194 98.24 449.314 97.992 448.546 97.496C447.778 97 447.17 96.32 446.722 95.456C446.29 94.576 446.074 93.576 446.074 92.456C446.074 91.336 446.298 90.344 446.746 89.48C447.194 88.616 447.818 87.944 448.618 87.464C449.418 86.968 450.338 86.72 451.378 86.72C452.386 86.72 453.266 86.952 454.018 87.416C454.786 87.88 455.378 88.528 455.794 89.36C456.226 90.176 456.442 91.12 456.442 92.192C456.442 92.288 456.434 92.392 456.418 92.504C456.418 92.616 456.41 92.712 456.394 92.792H446.866V91.712H455.458L454.93 92.456C454.962 92.376 454.994 92.272 455.026 92.144C455.074 92 455.098 91.864 455.098 91.736C455.098 90.984 454.93 90.312 454.594 89.72C454.274 89.128 453.834 88.664 453.274 88.328C452.714 87.992 452.082 87.824 451.378 87.824C450.562 87.824 449.85 88.016 449.242 88.4C448.65 88.768 448.186 89.296 447.85 89.984C447.514 90.656 447.346 91.456 447.346 92.384C447.346 93.328 447.506 94.152 447.826 94.856C448.162 95.56 448.626 96.104 449.218 96.488C449.826 96.872 450.53 97.064 451.33 97.064C452.178 97.064 452.914 96.88 453.538 96.512C454.178 96.144 454.746 95.568 455.242 94.784L456.25 95.432C455.626 96.392 454.898 97.104 454.066 97.568C453.25 98.016 452.29 98.24 451.186 98.24Z" fill="#141414"/>
<path d="M397.202 124.666H392.702V125.62H397.202V124.666ZM392.63 127.672H397.202V126.664H392.684C392.666 126.988 392.648 127.33 392.63 127.672ZM397.67 130.768H393.8V132.388H397.67V130.768ZM398.714 128.878H392.522C392.486 129.112 392.45 129.346 392.414 129.58H399.146V134.278H397.67V133.666H393.8V134.314H392.378V129.796C392.126 131.182 391.712 132.586 391.01 133.738C390.704 133.504 389.984 133.18 389.57 133.036C390.974 130.822 391.136 127.762 391.136 125.728V123.46H398.714V128.878ZM394.754 117.97L396.284 118.546C396.194 118.708 396.086 118.852 395.978 119.014C397.346 119.824 398.93 120.796 399.776 121.444L398.912 122.848C398.048 122.146 396.428 121.084 395.042 120.202C394.574 120.706 394.07 121.192 393.53 121.642H396.968V122.686H393.242V121.894C392.378 122.596 391.424 123.208 390.488 123.712C390.326 123.334 389.876 122.506 389.588 122.146C391.622 121.21 393.638 119.716 394.754 117.97ZM402.062 119.824V129.724H400.496V119.824H402.062ZM403.79 117.97H405.41V132.316C405.41 133.288 405.194 133.774 404.618 134.026C404.06 134.314 403.124 134.368 401.666 134.368C401.594 133.918 401.36 133.162 401.126 132.694C402.152 132.73 403.088 132.73 403.376 132.712C403.682 132.712 403.79 132.622 403.79 132.298V117.97ZM422.114 119.734V121.12H414.194V119.734H417.488C417.29 119.23 417.056 118.654 416.84 118.204L418.496 117.772C418.802 118.384 419.162 119.14 419.396 119.734H422.114ZM415.454 128.986L416.768 129.382C416.318 130.642 415.598 132.082 414.95 133C414.68 132.784 414.14 132.388 413.798 132.208C414.464 131.362 415.076 130.138 415.454 128.986ZM422.15 128.212H419.09V134.314H417.47V128.212H414.014V126.79H417.47V125.152H413.906V123.748H415.868C415.796 123.136 415.544 122.2 415.238 121.498L416.606 121.156C416.894 121.858 417.182 122.776 417.272 123.37L415.94 123.748H418.784C419.108 122.992 419.486 121.894 419.666 121.138L421.214 121.462C420.908 122.254 420.602 123.082 420.296 123.748H422.402V125.152H419.09V126.79H422.15V128.212ZM419.72 129.454L420.836 128.842C421.43 129.688 422.042 130.822 422.33 131.542L421.16 132.244C420.872 131.488 420.26 130.318 419.72 129.454ZM430.304 123.874V125.422H428.468V134.332H426.83V125.422H424.724V125.854C424.724 128.446 424.49 132.046 422.888 134.332C422.636 134.026 421.952 133.522 421.61 133.342C423.032 131.254 423.158 128.212 423.158 125.854V119.626C425.156 119.284 427.37 118.726 428.666 118.168L429.98 119.392C428.504 119.968 426.56 120.4 424.724 120.724V123.874H430.304Z" fill="#141414"/>
<path d="M95.5898 93.152C95.8618 93.856 96.1898 94.496 96.5738 95.072C96.9738 95.648 97.4618 96.112 98.0378 96.464C98.6138 96.8 99.3018 96.968 100.102 96.968C101.19 96.968 102.038 96.672 102.646 96.08C103.27 95.472 103.582 94.704 103.582 93.776C103.582 92.96 103.398 92.304 103.03 91.808C102.662 91.312 102.182 90.912 101.59 90.608C101.014 90.288 100.406 90.008 99.7658 89.768C99.2858 89.592 98.7818 89.384 98.2538 89.144C97.7418 88.888 97.2618 88.584 96.8138 88.232C96.3658 87.864 95.9978 87.424 95.7098 86.912C95.4378 86.4 95.3018 85.784 95.3018 85.064C95.3018 84.264 95.4938 83.56 95.8778 82.952C96.2618 82.328 96.7978 81.848 97.4858 81.512C98.1738 81.16 98.9498 80.984 99.8138 80.984C100.71 80.984 101.478 81.152 102.118 81.488C102.774 81.824 103.318 82.248 103.75 82.76C104.182 83.272 104.51 83.8 104.734 84.344L103.582 84.992C103.406 84.56 103.15 84.136 102.814 83.72C102.494 83.304 102.086 82.96 101.59 82.688C101.094 82.4 100.478 82.256 99.7418 82.256C98.7658 82.256 98.0138 82.512 97.4858 83.024C96.9578 83.52 96.6938 84.144 96.6938 84.896C96.6938 85.52 96.8458 86.056 97.1498 86.504C97.4538 86.952 97.9098 87.36 98.5178 87.728C99.1258 88.08 99.8778 88.416 100.774 88.736C101.238 88.912 101.718 89.128 102.214 89.384C102.71 89.64 103.158 89.96 103.558 90.344C103.974 90.728 104.31 91.192 104.566 91.736C104.822 92.264 104.95 92.896 104.95 93.632C104.95 94.32 104.822 94.944 104.566 95.504C104.326 96.064 103.982 96.552 103.534 96.968C103.102 97.368 102.59 97.68 101.998 97.904C101.406 98.112 100.766 98.216 100.078 98.216C99.1018 98.216 98.2458 98.016 97.5098 97.616C96.7738 97.216 96.1578 96.68 95.6618 96.008C95.1658 95.336 94.7818 94.608 94.5098 93.824L95.5898 93.152ZM108.176 86.96H113.024V88.136H108.176V86.96ZM109.976 83.12H111.224V98H109.976V83.12ZM118.297 86.96V98H117.049V86.96H118.297ZM121.969 88.424C121.729 88.248 121.497 88.12 121.273 88.04C121.065 87.944 120.817 87.896 120.529 87.896C119.985 87.896 119.545 88.048 119.209 88.352C118.889 88.656 118.657 89.064 118.513 89.576C118.369 90.088 118.297 90.656 118.297 91.28H117.721C117.721 90.4 117.857 89.624 118.129 88.952C118.401 88.264 118.769 87.72 119.233 87.32C119.713 86.92 120.241 86.72 120.817 86.72C121.169 86.72 121.497 86.776 121.801 86.888C122.121 86.984 122.409 87.152 122.665 87.392L121.969 88.424ZM126.896 94.688C126.896 95.232 127.016 95.688 127.256 96.056C127.512 96.424 127.848 96.704 128.264 96.896C128.696 97.072 129.168 97.16 129.68 97.16C130.304 97.16 130.872 97.016 131.384 96.728C131.912 96.44 132.336 96.016 132.656 95.456C132.976 94.896 133.136 94.208 133.136 93.392L133.424 94.448C133.424 95.312 133.216 96.024 132.8 96.584C132.384 97.144 131.864 97.56 131.24 97.832C130.616 98.104 129.984 98.24 129.344 98.24C128.72 98.24 128.12 98.112 127.544 97.856C126.968 97.584 126.504 97.192 126.152 96.68C125.8 96.168 125.624 95.52 125.624 94.736C125.624 93.664 125.992 92.816 126.728 92.192C127.48 91.568 128.496 91.256 129.776 91.256C130.496 91.256 131.112 91.344 131.624 91.52C132.152 91.68 132.584 91.864 132.92 92.072C133.256 92.28 133.496 92.456 133.64 92.6V93.392C133.096 93.008 132.512 92.728 131.888 92.552C131.28 92.36 130.64 92.264 129.968 92.264C129.344 92.264 128.8 92.352 128.336 92.528C127.888 92.704 127.536 92.968 127.28 93.32C127.024 93.672 126.896 94.128 126.896 94.688ZM126.944 88.976L126.32 88.04C126.736 87.752 127.272 87.464 127.928 87.176C128.6 86.872 129.424 86.72 130.4 86.72C131.232 86.72 131.944 86.856 132.536 87.128C133.128 87.4 133.584 87.792 133.904 88.304C134.224 88.816 134.384 89.44 134.384 90.176V98H133.136V90.344C133.136 90.024 133.088 89.72 132.992 89.432C132.896 89.128 132.736 88.856 132.512 88.616C132.304 88.376 132.016 88.184 131.648 88.04C131.28 87.896 130.832 87.824 130.304 87.824C129.76 87.824 129.272 87.888 128.84 88.016C128.408 88.144 128.032 88.296 127.712 88.472C127.408 88.648 127.152 88.816 126.944 88.976ZM138.053 86.96H142.901V88.136H138.053V86.96ZM139.853 83.12H141.101V98H139.853V83.12ZM151.078 98.24C150.086 98.24 149.206 97.992 148.438 97.496C147.67 97 147.062 96.32 146.614 95.456C146.182 94.576 145.966 93.576 145.966 92.456C145.966 91.336 146.19 90.344 146.638 89.48C147.086 88.616 147.71 87.944 148.51 87.464C149.31 86.968 150.23 86.72 151.27 86.72C152.278 86.72 153.158 86.952 153.91 87.416C154.678 87.88 155.27 88.528 155.686 89.36C156.118 90.176 156.334 91.12 156.334 92.192C156.334 92.288 156.326 92.392 156.31 92.504C156.31 92.616 156.302 92.712 156.286 92.792H146.758V91.712H155.35L154.822 92.456C154.854 92.376 154.886 92.272 154.918 92.144C154.966 92 154.99 91.864 154.99 91.736C154.99 90.984 154.822 90.312 154.486 89.72C154.166 89.128 153.726 88.664 153.166 88.328C152.606 87.992 151.974 87.824 151.27 87.824C150.454 87.824 149.742 88.016 149.134 88.4C148.542 88.768 148.078 89.296 147.742 89.984C147.406 90.656 147.238 91.456 147.238 92.384C147.238 93.328 147.398 94.152 147.718 94.856C148.054 95.56 148.518 96.104 149.11 96.488C149.718 96.872 150.422 97.064 151.222 97.064C152.07 97.064 152.806 96.88 153.43 96.512C154.07 96.144 154.638 95.568 155.134 94.784L156.142 95.432C155.518 96.392 154.79 97.104 153.958 97.568C153.142 98.016 152.182 98.24 151.078 98.24ZM160.385 98.72H161.657C161.657 99.408 161.817 100.024 162.137 100.568C162.457 101.112 162.905 101.544 163.481 101.864C164.073 102.184 164.753 102.344 165.521 102.344C166.209 102.344 166.857 102.184 167.465 101.864C168.073 101.544 168.569 101.04 168.953 100.352C169.353 99.68 169.553 98.816 169.553 97.76V86.96H170.801V97.76C170.801 99.024 170.553 100.08 170.057 100.928C169.561 101.792 168.913 102.44 168.113 102.872C167.313 103.304 166.449 103.52 165.521 103.52C164.513 103.52 163.617 103.32 162.833 102.92C162.065 102.52 161.465 101.952 161.033 101.216C160.601 100.496 160.385 99.664 160.385 98.72ZM160.121 92.48C160.121 91.28 160.361 90.256 160.841 89.408C161.321 88.544 161.961 87.88 162.761 87.416C163.577 86.952 164.473 86.72 165.449 86.72C166.409 86.72 167.233 86.976 167.921 87.488C168.609 87.984 169.145 88.664 169.529 89.528C169.929 90.392 170.129 91.376 170.129 92.48C170.129 93.568 169.929 94.552 169.529 95.432C169.145 96.296 168.609 96.984 167.921 97.496C167.233 97.992 166.409 98.24 165.449 98.24C164.473 98.24 163.577 98.008 162.761 97.544C161.961 97.08 161.321 96.416 160.841 95.552C160.361 94.688 160.121 93.664 160.121 92.48ZM161.393 92.48C161.393 93.44 161.577 94.264 161.945 94.952C162.329 95.64 162.841 96.168 163.481 96.536C164.137 96.888 164.849 97.064 165.617 97.064C166.305 97.064 166.945 96.864 167.537 96.464C168.145 96.064 168.633 95.52 169.001 94.832C169.369 94.128 169.553 93.328 169.553 92.432C169.553 91.792 169.449 91.2 169.241 90.656C169.033 90.112 168.737 89.632 168.353 89.216C167.985 88.8 167.561 88.48 167.081 88.256C166.617 88.016 166.129 87.896 165.617 87.896C164.849 87.896 164.137 88.08 163.481 88.448C162.841 88.8 162.329 89.32 161.945 90.008C161.577 90.696 161.393 91.52 161.393 92.48ZM176.384 81.968C176.384 81.712 176.472 81.504 176.648 81.344C176.824 81.168 177.032 81.08 177.272 81.08C177.528 81.08 177.736 81.168 177.896 81.344C178.072 81.504 178.16 81.712 178.16 81.968C178.16 82.208 178.072 82.416 177.896 82.592C177.736 82.768 177.528 82.856 177.272 82.856C177.032 82.856 176.824 82.768 176.648 82.592C176.472 82.416 176.384 82.208 176.384 81.968ZM176.648 86.96H177.896V98H176.648V86.96ZM189.954 88.136H183.018V86.96H192.234L184.674 96.824H192.042V98H182.394L189.954 88.136ZM200.36 98.24C199.368 98.24 198.488 97.992 197.72 97.496C196.952 97 196.344 96.32 195.896 95.456C195.464 94.576 195.248 93.576 195.248 92.456C195.248 91.336 195.472 90.344 195.92 89.48C196.368 88.616 196.992 87.944 197.792 87.464C198.592 86.968 199.512 86.72 200.552 86.72C201.56 86.72 202.44 86.952 203.192 87.416C203.96 87.88 204.552 88.528 204.968 89.36C205.4 90.176 205.616 91.12 205.616 92.192C205.616 92.288 205.608 92.392 205.592 92.504C205.592 92.616 205.584 92.712 205.568 92.792H196.04V91.712H204.632L204.104 92.456C204.136 92.376 204.168 92.272 204.2 92.144C204.248 92 204.272 91.864 204.272 91.736C204.272 90.984 204.104 90.312 203.768 89.72C203.448 89.128 203.008 88.664 202.448 88.328C201.888 87.992 201.256 87.824 200.552 87.824C199.736 87.824 199.024 88.016 198.416 88.4C197.824 88.768 197.36 89.296 197.024 89.984C196.688 90.656 196.52 91.456 196.52 92.384C196.52 93.328 196.68 94.152 197 94.856C197.336 95.56 197.8 96.104 198.392 96.488C199 96.872 199.704 97.064 200.504 97.064C201.352 97.064 202.088 96.88 202.712 96.512C203.352 96.144 203.92 95.568 204.416 94.784L205.424 95.432C204.8 96.392 204.072 97.104 203.24 97.568C202.424 98.016 201.464 98.24 200.36 98.24Z" fill="#141414"/>
<path d="M134.052 120.4H132.738C132.162 121.3 131.532 122.11 130.902 122.722C130.668 122.452 130.092 121.876 129.768 121.624C130.83 120.67 131.838 119.212 132.396 117.754L133.89 118.186C133.764 118.492 133.638 118.78 133.476 119.086H137.778V120.4H134.754C135.294 120.868 135.87 121.444 136.194 121.822L135.114 122.776C134.754 122.29 133.98 121.516 133.386 120.958L134.052 120.4ZM138.966 127.078V128.716C140.424 130.192 143.178 131.704 146.328 132.316C145.986 132.676 145.5 133.36 145.266 133.792C142.71 133.144 140.478 131.812 138.966 130.48V134.404H137.184V130.426C135.474 132.01 133.17 133.234 130.812 133.882C130.596 133.468 130.11 132.82 129.768 132.478C132.72 131.83 135.618 130.354 137.184 128.5V127.078H133.188V130.39H131.424V125.656H137.184V124.486H130.218V123.028H137.184V121.966H138.642C138.336 121.696 137.832 121.3 137.526 121.102C138.498 120.292 139.326 119.05 139.758 117.754L141.288 118.132C141.18 118.456 141.036 118.762 140.91 119.086H146.076V120.4H142.548C143.124 120.832 143.754 121.39 144.114 121.786L142.98 122.776C142.584 122.29 141.792 121.552 141.144 121.03L141.918 120.4H140.172C139.776 120.994 139.344 121.534 138.894 121.966H138.966V123.028H145.644V124.486H138.966V125.656H144.672V128.824C144.672 129.58 144.51 129.922 143.988 130.138C143.43 130.354 142.674 130.372 141.684 130.372C141.576 129.94 141.306 129.418 141.108 129.04C141.774 129.076 142.494 129.076 142.674 129.058C142.89 129.058 142.962 129.004 142.962 128.824V127.078H138.966ZM162.726 127.852H168.306C167.298 127.294 166.362 126.61 165.552 125.872C164.67 126.628 163.716 127.294 162.726 127.852ZM163.266 132.298H167.676V129.328H163.266V132.298ZM160.494 123.388V127.204C161.88 126.628 163.248 125.8 164.454 124.774C163.806 124.054 163.248 123.298 162.798 122.578C162.312 123.172 161.772 123.694 161.25 124.144C161.088 123.946 160.782 123.658 160.494 123.388ZM157.974 129.346H159.18V125.368H157.974V129.346ZM155.724 125.368V129.346H156.894V125.368H155.724ZM156.894 120.4H155.724V123.964H156.894V120.4ZM159.18 123.964V120.4H157.974V123.964H159.18ZM167.424 121.138H163.896L163.734 121.372C164.184 122.146 164.796 122.974 165.534 123.73C166.29 122.938 166.938 122.074 167.424 121.138ZM168.522 119.662L169.602 120.202C168.936 121.966 167.91 123.496 166.668 124.792C167.82 125.746 169.206 126.574 170.754 127.096C170.412 127.402 169.908 128.068 169.674 128.5C169.548 128.446 169.422 128.392 169.296 128.338V134.332H167.676V133.774H163.266V134.35H161.682V128.392C161.466 128.5 161.232 128.608 161.016 128.698C160.89 128.464 160.692 128.176 160.494 127.924V130.786H155.724V132.334H154.464V118.942H160.494V122.578C161.898 121.39 163.14 119.662 163.86 117.844L165.426 118.294C165.228 118.78 164.994 119.266 164.742 119.734H168.234L168.522 119.662Z" fill="#141414"/>
<path d="M595.196 89.6C595.196 91.024 595.5 92.28 596.108 93.368C596.716 94.456 597.532 95.312 598.556 95.936C599.58 96.56 600.724 96.872 601.988 96.872C602.788 96.872 603.516 96.784 604.172 96.608C604.828 96.432 605.42 96.168 605.948 95.816C606.492 95.464 606.972 95.048 607.388 94.568V96.344C606.684 96.968 605.916 97.44 605.084 97.76C604.252 98.064 603.22 98.216 601.988 98.216C600.82 98.216 599.732 98.008 598.724 97.592C597.732 97.16 596.868 96.56 596.132 95.792C595.396 95.024 594.82 94.112 594.404 93.056C593.988 92 593.78 90.848 593.78 89.6C593.78 88.352 593.988 87.2 594.404 86.144C594.82 85.088 595.396 84.176 596.132 83.408C596.868 82.64 597.732 82.048 598.724 81.632C599.732 81.2 600.82 80.984 601.988 80.984C603.22 80.984 604.252 81.144 605.084 81.464C605.916 81.768 606.684 82.232 607.388 82.856V84.608C606.972 84.128 606.492 83.72 605.948 83.384C605.404 83.032 604.804 82.768 604.148 82.592C603.492 82.416 602.772 82.328 601.988 82.328C600.724 82.328 599.58 82.64 598.556 83.264C597.532 83.872 596.716 84.72 596.108 85.808C595.5 86.896 595.196 88.16 595.196 89.6ZM612.01 92.48C612.01 91.36 612.258 90.368 612.754 89.504C613.25 88.64 613.922 87.96 614.77 87.464C615.634 86.968 616.602 86.72 617.674 86.72C618.746 86.72 619.706 86.968 620.554 87.464C621.418 87.96 622.098 88.64 622.594 89.504C623.09 90.368 623.338 91.36 623.338 92.48C623.338 93.584 623.09 94.576 622.594 95.456C622.098 96.32 621.418 97 620.554 97.496C619.706 97.992 618.746 98.24 617.674 98.24C616.602 98.24 615.634 97.992 614.77 97.496C613.922 97 613.25 96.32 612.754 95.456C612.258 94.576 612.01 93.584 612.01 92.48ZM613.282 92.48C613.282 93.376 613.474 94.168 613.858 94.856C614.242 95.544 614.762 96.088 615.418 96.488C616.09 96.872 616.842 97.064 617.674 97.064C618.506 97.064 619.25 96.872 619.906 96.488C620.578 96.088 621.106 95.544 621.49 94.856C621.874 94.168 622.066 93.376 622.066 92.48C622.066 91.6 621.874 90.816 621.49 90.128C621.106 89.424 620.578 88.88 619.906 88.496C619.25 88.096 618.506 87.896 617.674 87.896C616.842 87.896 616.09 88.096 615.418 88.496C614.762 88.88 614.242 89.416 613.858 90.104C613.474 90.792 613.282 91.584 613.282 92.48ZM642.149 90.752V98H640.901V90.896C640.901 89.936 640.717 89.2 640.349 88.688C639.981 88.16 639.413 87.896 638.645 87.896C638.101 87.896 637.605 88.04 637.157 88.328C636.725 88.616 636.381 89.016 636.125 89.528C635.869 90.04 635.741 90.624 635.741 91.28V98H634.493V90.896C634.493 89.936 634.309 89.2 633.941 88.688C633.573 88.16 633.005 87.896 632.237 87.896C631.693 87.896 631.197 88.04 630.749 88.328C630.317 88.616 629.973 89.016 629.717 89.528C629.461 90.04 629.333 90.624 629.333 91.28V98H628.085V86.96H629.333V89.192C629.621 88.408 630.045 87.8 630.605 87.368C631.165 86.936 631.805 86.72 632.525 86.72C633.325 86.72 633.981 86.952 634.493 87.416C635.005 87.864 635.349 88.48 635.525 89.264C635.845 88.464 636.309 87.84 636.917 87.392C637.525 86.944 638.197 86.72 638.933 86.72C639.621 86.72 640.205 86.88 640.685 87.2C641.165 87.52 641.525 87.984 641.765 88.592C642.021 89.2 642.149 89.92 642.149 90.752ZM661.929 90.752V98H660.681V90.896C660.681 89.936 660.497 89.2 660.129 88.688C659.761 88.16 659.193 87.896 658.425 87.896C657.881 87.896 657.385 88.04 656.937 88.328C656.505 88.616 656.161 89.016 655.905 89.528C655.649 90.04 655.521 90.624 655.521 91.28V98H654.273V90.896C654.273 89.936 654.089 89.2 653.721 88.688C653.353 88.16 652.785 87.896 652.017 87.896C651.473 87.896 650.977 88.04 650.529 88.328C650.097 88.616 649.753 89.016 649.497 89.528C649.241 90.04 649.113 90.624 649.113 91.28V98H647.865V86.96H649.113V89.192C649.401 88.408 649.825 87.8 650.385 87.368C650.945 86.936 651.585 86.72 652.305 86.72C653.105 86.72 653.761 86.952 654.273 87.416C654.785 87.864 655.129 88.48 655.305 89.264C655.625 88.464 656.089 87.84 656.697 87.392C657.305 86.944 657.977 86.72 658.713 86.72C659.401 86.72 659.985 86.88 660.465 87.2C660.945 87.52 661.305 87.984 661.545 88.592C661.801 89.2 661.929 89.92 661.929 90.752ZM668.892 93.968C668.892 94.928 669.1 95.688 669.516 96.248C669.932 96.792 670.588 97.064 671.484 97.064C672.108 97.064 672.66 96.912 673.14 96.608C673.636 96.304 674.02 95.896 674.292 95.384C674.58 94.872 674.724 94.304 674.724 93.68V86.96H675.972V98H674.724V95.696C674.42 96.496 673.964 97.12 673.356 97.568C672.748 98.016 672.028 98.24 671.196 98.24C670.044 98.24 669.164 97.872 668.556 97.136C667.948 96.384 667.644 95.376 667.644 94.112V86.96H668.892V93.968ZM688.761 90.896C688.761 89.952 688.553 89.216 688.137 88.688C687.721 88.16 687.065 87.896 686.169 87.896C685.545 87.896 684.985 88.048 684.489 88.352C684.009 88.64 683.625 89.04 683.337 89.552C683.065 90.064 682.929 90.64 682.929 91.28V98H681.681V86.96H682.929V89.264C683.233 88.464 683.689 87.84 684.297 87.392C684.921 86.944 685.641 86.72 686.457 86.72C687.609 86.72 688.489 87.088 689.097 87.824C689.705 88.544 690.009 89.52 690.009 90.752V98H688.761V90.896ZM695.718 81.968C695.718 81.712 695.806 81.504 695.982 81.344C696.158 81.168 696.366 81.08 696.606 81.08C696.862 81.08 697.07 81.168 697.23 81.344C697.406 81.504 697.494 81.712 697.494 81.968C697.494 82.208 697.406 82.416 697.23 82.592C697.07 82.768 696.862 82.856 696.606 82.856C696.366 82.856 696.158 82.768 695.982 82.592C695.806 82.416 695.718 82.208 695.718 81.968ZM695.982 86.96H697.23V98H695.982V86.96ZM703.408 92.48C703.408 93.376 703.6 94.168 703.984 94.856C704.368 95.544 704.888 96.088 705.544 96.488C706.216 96.872 706.968 97.064 707.8 97.064C708.392 97.064 708.944 96.976 709.456 96.8C709.968 96.624 710.408 96.4 710.776 96.128C711.16 95.84 711.432 95.552 711.592 95.264V96.824C711.256 97.224 710.736 97.56 710.032 97.832C709.344 98.104 708.6 98.24 707.8 98.24C706.728 98.24 705.768 97.992 704.92 97.496C704.072 97 703.392 96.32 702.88 95.456C702.384 94.576 702.136 93.584 702.136 92.48C702.136 91.36 702.384 90.368 702.88 89.504C703.392 88.64 704.072 87.96 704.92 87.464C705.768 86.968 706.728 86.72 707.8 86.72C708.6 86.72 709.344 86.864 710.032 87.152C710.736 87.424 711.256 87.752 711.592 88.136V89.696C711.432 89.392 711.16 89.104 710.776 88.832C710.408 88.56 709.968 88.336 709.456 88.16C708.944 87.984 708.392 87.896 707.8 87.896C706.968 87.896 706.216 88.096 705.544 88.496C704.888 88.88 704.368 89.416 703.984 90.104C703.6 90.792 703.408 91.584 703.408 92.48ZM716.907 94.688C716.907 95.232 717.027 95.688 717.267 96.056C717.523 96.424 717.859 96.704 718.275 96.896C718.707 97.072 719.179 97.16 719.691 97.16C720.315 97.16 720.883 97.016 721.395 96.728C721.923 96.44 722.347 96.016 722.667 95.456C722.987 94.896 723.147 94.208 723.147 93.392L723.435 94.448C723.435 95.312 723.227 96.024 722.811 96.584C722.395 97.144 721.875 97.56 721.251 97.832C720.627 98.104 719.995 98.24 719.355 98.24C718.731 98.24 718.131 98.112 717.555 97.856C716.979 97.584 716.515 97.192 716.163 96.68C715.811 96.168 715.635 95.52 715.635 94.736C715.635 93.664 716.003 92.816 716.739 92.192C717.491 91.568 718.507 91.256 719.787 91.256C720.507 91.256 721.123 91.344 721.635 91.52C722.163 91.68 722.595 91.864 722.931 92.072C723.267 92.28 723.507 92.456 723.651 92.6V93.392C723.107 93.008 722.523 92.728 721.899 92.552C721.291 92.36 720.651 92.264 719.979 92.264C719.355 92.264 718.811 92.352 718.347 92.528C717.899 92.704 717.547 92.968 717.291 93.32C717.035 93.672 716.907 94.128 716.907 94.688ZM716.955 88.976L716.331 88.04C716.747 87.752 717.283 87.464 717.939 87.176C718.611 86.872 719.435 86.72 720.411 86.72C721.243 86.72 721.955 86.856 722.547 87.128C723.139 87.4 723.595 87.792 723.915 88.304C724.235 88.816 724.395 89.44 724.395 90.176V98H723.147V90.344C723.147 90.024 723.099 89.72 723.003 89.432C722.907 89.128 722.747 88.856 722.523 88.616C722.315 88.376 722.027 88.184 721.659 88.04C721.291 87.896 720.843 87.824 720.315 87.824C719.771 87.824 719.283 87.888 718.851 88.016C718.419 88.144 718.043 88.296 717.723 88.472C717.419 88.648 717.163 88.816 716.955 88.976ZM728.064 86.96H732.912V88.136H728.064V86.96ZM729.864 83.12H731.112V98H729.864V83.12ZM741.089 98.24C740.097 98.24 739.217 97.992 738.449 97.496C737.681 97 737.073 96.32 736.625 95.456C736.193 94.576 735.977 93.576 735.977 92.456C735.977 91.336 736.201 90.344 736.649 89.48C737.097 88.616 737.721 87.944 738.521 87.464C739.321 86.968 740.241 86.72 741.281 86.72C742.289 86.72 743.169 86.952 743.921 87.416C744.689 87.88 745.281 88.528 745.697 89.36C746.129 90.176 746.345 91.12 746.345 92.192C746.345 92.288 746.337 92.392 746.321 92.504C746.321 92.616 746.313 92.712 746.297 92.792H736.769V91.712H745.361L744.833 92.456C744.865 92.376 744.897 92.272 744.929 92.144C744.977 92 745.001 91.864 745.001 91.736C745.001 90.984 744.833 90.312 744.497 89.72C744.177 89.128 743.737 88.664 743.177 88.328C742.617 87.992 741.985 87.824 741.281 87.824C740.465 87.824 739.753 88.016 739.145 88.4C738.553 88.768 738.089 89.296 737.753 89.984C737.417 90.656 737.249 91.456 737.249 92.384C737.249 93.328 737.409 94.152 737.729 94.856C738.065 95.56 738.529 96.104 739.121 96.488C739.729 96.872 740.433 97.064 741.233 97.064C742.081 97.064 742.817 96.88 743.441 96.512C744.081 96.144 744.649 95.568 745.145 94.784L746.153 95.432C745.529 96.392 744.801 97.104 743.969 97.568C743.153 98.016 742.193 98.24 741.089 98.24Z" fill="#141414"/>
<path d="M654.592 119.86L653.602 121.228C652.99 120.616 651.658 119.77 650.578 119.266L651.514 118.024C652.576 118.474 653.944 119.23 654.592 119.86ZM653.692 124.486L652.72 125.872C652.09 125.278 650.758 124.486 649.66 124.018L650.578 122.758C651.658 123.172 653.008 123.892 653.692 124.486ZM653.044 127.42L654.358 128.428C653.548 130.336 652.522 132.496 651.622 134.188L650.128 133.198C650.956 131.812 652.162 129.49 653.044 127.42ZM660.928 130.264H663.358V129.166H660.928V130.264ZM657.148 129.166V130.264H659.344V129.166H657.148ZM659.344 126.97H657.148V128.014H659.344V126.97ZM663.358 126.97H660.928V128.014H663.358V126.97ZM658.84 122.56V123.55H661.504V122.56H658.84ZM658.84 120.418V121.372H661.504V120.418H658.84ZM666.238 130.264V131.596H664.96V132.802C664.96 133.558 664.762 133.936 664.222 134.17C663.664 134.386 662.8 134.386 661.54 134.386C661.432 133.99 661.18 133.432 661 133.072C661.864 133.108 662.764 133.108 662.998 133.09C663.268 133.072 663.358 133.018 663.358 132.784V131.596H657.148V134.368H655.582V131.596H654.052V130.264H655.582V125.746H659.344V124.9H654.214V123.55H657.238V122.56H655.294V121.372H657.238V120.418H654.898V119.194H657.238V117.88H658.84V119.194H661.504V117.88H663.106V119.194H665.626V120.418H663.106V121.372H665.32V122.56H663.106V123.55H666.148V124.9H660.928V125.746H664.96V130.264H666.238ZM683.752 123.622H681.07V124.918H683.752V123.622ZM688.018 124.918V123.622H685.192V124.918H688.018ZM685.192 127.492H688.018V126.142H685.192V127.492ZM681.07 127.492H683.752V126.142H681.07V127.492ZM681.07 128.752V131.56H679.576V122.362H684.238C683.266 121.912 682.186 121.426 681.268 121.084L682.33 120.184C683.05 120.418 683.878 120.742 684.67 121.102C685.372 120.742 686.092 120.274 686.686 119.842H679.684V118.564H688.198L688.522 118.474L689.53 119.284C688.612 120.166 687.37 121.048 686.092 121.732C686.578 121.948 687.01 122.164 687.37 122.362H689.53V130.066C689.53 130.804 689.368 131.164 688.882 131.38C688.396 131.614 687.64 131.614 686.524 131.614C686.47 131.218 686.272 130.696 686.092 130.336C686.83 130.354 687.532 130.354 687.73 130.354C687.964 130.336 688.018 130.282 688.018 130.066V128.752H685.192V131.524H683.752V128.752H681.07ZM678.118 120.616L676.822 121.534C676.354 120.796 675.346 119.554 674.536 118.672L675.778 117.898C676.606 118.762 677.596 119.896 678.118 120.616ZM677.956 126.394L678.784 126.7C678.532 128.212 678.172 129.526 677.668 130.66C678.82 132.424 680.908 132.694 683.986 132.694C685.876 132.694 688.612 132.604 690.52 132.424C690.286 132.784 690.07 133.54 689.98 133.99C688.234 134.098 685.966 134.152 683.968 134.152C680.566 134.152 678.406 133.792 677.02 131.938C676.372 133.036 675.58 133.846 674.68 134.458C674.464 134.134 673.906 133.558 673.582 133.324C675.274 132.28 676.498 130.39 677.092 127.744H675.328C674.878 127.744 674.392 127.87 674.248 128.014C674.158 127.636 673.852 126.898 673.69 126.592C673.942 126.52 674.248 126.394 674.572 126.034C674.932 125.674 675.868 124.432 676.588 123.388H673.96V122.038H677.65L677.866 121.948L678.928 122.434C678.226 123.442 676.966 125.206 675.976 126.43H677.686L677.956 126.394Z" fill="#141414"/>
<defs>
<linearGradient id="paint0_linear_3152_2024" x1="-3.05176e-05" y1="150" x2="300" y2="150" gradientUnits="userSpaceOnUse">
<stop stop-color="#6DCA1D"/>
<stop offset="1" stop-color="#4DB0FF"/>
</linearGradient>
<linearGradient id="paint1_linear_3152_2024" x1="260" y1="150" x2="560" y2="150" gradientUnits="userSpaceOnUse">
<stop stop-color="#6DCA1D"/>
<stop offset="1" stop-color="#4DB0FF"/>
</linearGradient>
<linearGradient id="paint2_linear_3152_2024" x1="520" y1="150" x2="820" y2="150" gradientUnits="userSpaceOnUse">
<stop stop-color="#6DCA1D"/>
<stop offset="1" stop-color="#4DB0FF"/>
</linearGradient>
</defs>
</svg>
